<mxfile host="app.diagrams.net" agent="Mozilla/5.0 (Macintosh; Intel Mac OS X 10_15_7) AppleWebKit/537.36 (KHTML, like Gecko) Chrome/135.0.0.0 Safari/537.36" version="26.2.15">
  <diagram name="Page-1" id="UAxv-p06g2yDTDaWJKon">
    <mxGraphModel grid="1" page="1" gridSize="10" guides="1" tooltips="1" connect="1" arrows="1" fold="1" pageScale="1" pageWidth="850" pageHeight="1100" math="0" shadow="0">
      <root>
        <mxCell id="0" />
        <mxCell id="1" parent="0" />
        <mxCell id="9b-lSULOD5wFRCRC9myc-1" value="" style="shape=image;verticalLabelPosition=bottom;labelBackgroundColor=default;verticalAlign=top;aspect=fixed;imageAspect=0;editableCssRules=.*;image=data:image/svg+xml,PHN2ZyB4bWxucz0iaHR0cDovL3d3dy53My5vcmcvMjAwMC9zdmciIGlkPSJleHBvcnQtc3ZnIiB3aWR0aD0iMTI3OCIgc3R5bGU9Im1heC13aWR0aDogMTM3NnB4OyIgdmlld0JveD0iLTEgLTEgMTI3OCAxNjA4IiByb2xlPSJncmFwaGljcy1kb2N1bWVudCBkb2N1bWVudCIgYXJpYS1yb2xlZGVzY3JpcHRpb249InNlcXVlbmNlIiBoZWlnaHQ9IjE2MDgiPjxzdHlsZT5AaW1wb3J0IHVybCgiaHR0cHM6Ly9jZG5qcy5jbG91ZGZsYXJlLmNvbS9hamF4L2xpYnMvZm9udC1hd2Vzb21lLzYuMi4wL2Nzcy9hbGwubWluLmNzcyIpOyBwIHttYXJnaW46IDA7fTwvc3R5bGU+PGc+PHJlY3QgeD0iMTExOSIgeT0iMTU0MSIgZmlsbD0iI2VhZWFlYSIgc3Ryb2tlPSIjNjY2IiB3aWR0aD0iMTU3IiBoZWlnaHQ9IjY1IiBuYW1lPSJDb2RlR2VuIiByeD0iNiIgcnk9IjYiIGNsYXNzPSJhY3RvciBhY3Rvci1ib3R0b20iIGRhdGEtbG9vaz0ibmVvIiBmaWx0ZXI9InVybCgjZHJvcC1zaGFkb3cpIi8+PHRleHQgeD0iMTE5Ny41IiB5PSIxNTczLjUiIHN0eWxlPSJ0ZXh0LWFuY2hvcjogbWlkZGxlOyBmb250LXNpemU6IDE2cHg7IGZvbnQtd2VpZ2h0OiA0MDA7IiBhbGlnbm1lbnQtYmFzZWxpbmU9ImNlbnRyYWwiIGNsYXNzPSJhY3RvciBhY3Rvci1ib3giPjx0c3BhbiB4PSIxMTk3LjUiIGR5PSIwIj4iQ29kZUdlbmVyYXRvciI8L3RzcGFuPjwvdGV4dD48L2c+PGc+PHJlY3QgeD0iODg3IiB5PSIxNTQxIiBmaWxsPSIjZWFlYWVhIiBzdHJva2U9IiM2NjYiIHdpZHRoPSIxODIiIGhlaWdodD0iNjUiIG5hbWU9IlNlbUEiIHJ4PSI2IiByeT0iNiIgY2xhc3M9ImFjdG9yIGFjdG9yLWJvdHRvbSIgZGF0YS1sb29rPSJuZW8iIGZpbHRlcj0idXJsKCNkcm9wLXNoYWRvdykiLz48dGV4dCB4PSI5NzgiIHk9IjE1NzMuNSIgc3R5bGU9InRleHQtYW5jaG9yOiBtaWRkbGU7IGZvbnQtc2l6ZTogMTZweDsgZm9udC13ZWlnaHQ6IDQwMDsiIGFsaWdubWVudC1iYXNlbGluZT0iY2VudHJhbCIgY2xhc3M9ImFjdG9yIGFjdG9yLWJveCI+PHRzcGFuIHg9Ijk3OCIgZHk9IjAiPiJTZW1hbnRpY0FuYWx5emVyIjwvdHNwYW4+PC90ZXh0PjwvZz48Zz48cmVjdCB4PSI2ODciIHk9IjE1NDEiIGZpbGw9IiNlYWVhZWEiIHN0cm9rZT0iIzY2NiIgd2lkdGg9IjE1MCIgaGVpZ2h0PSI2NSIgbmFtZT0iSlNPTklPIiByeD0iNiIgcnk9IjYiIGNsYXNzPSJhY3RvciBhY3Rvci1ib3R0b20iIGRhdGEtbG9vaz0ibmVvIiBmaWx0ZXI9InVybCgjZHJvcC1zaGFkb3cpIi8+PHRleHQgeD0iNzYyIiB5PSIxNTczLjUiIHN0eWxlPSJ0ZXh0LWFuY2hvcjogbWlkZGxlOyBmb250LXNpemU6IDE2cHg7IGZvbnQtd2VpZ2h0OiA0MDA7IiBhbGlnbm1lbnQtYmFzZWxpbmU9ImNlbnRyYWwiIGNsYXNzPSJhY3RvciBhY3Rvci1ib3giPjx0c3BhbiB4PSI3NjIiIGR5PSIwIj4iSlNPTi1GaWxlIEkvTyI8L3RzcGFuPjwvdGV4dD48L2c+PGc+PHJlY3QgeD0iNDg3IiB5PSIxNTQxIiBmaWxsPSIjZWFlYWVhIiBzdHJva2U9IiM2NjYiIHdpZHRoPSIxNTAiIGhlaWdodD0iNjUiIG5hbWU9IlBhcnNlciIgcng9IjYiIHJ5PSI2IiBjbGFzcz0iYWN0b3IgYWN0b3ItYm90dG9tIiBkYXRhLWxvb2s9Im5lbyIgZmlsdGVyPSJ1cmwoI2Ryb3Atc2hhZG93KSIvPjx0ZXh0IHg9IjU2MiIgeT0iMTU3My41IiBzdHlsZT0idGV4dC1hbmNob3I6IG1pZGRsZTsgZm9udC1zaXplOiAxNnB4OyBmb250LXdlaWdodDogNDAwOyIgYWxpZ25tZW50LWJhc2VsaW5lPSJjZW50cmFsIiBjbGFzcz0iYWN0b3IgYWN0b3ItYm94Ij48dHNwYW4geD0iNTYyIiBkeT0iMCI+UGFyc2VyPC90c3Bhbj48L3RleHQ+PC9nPjxnPjxyZWN0IHg9IjI4NyIgeT0iMTU0MSIgZmlsbD0iI2VhZWFlYSIgc3Ryb2tlPSIjNjY2IiB3aWR0aD0iMTUwIiBoZWlnaHQ9IjY1IiBuYW1lPSJMZXhlciIgcng9IjYiIHJ5PSI2IiBjbGFzcz0iYWN0b3IgYWN0b3ItYm90dG9tIiBkYXRhLWxvb2s9Im5lbyIgZmlsdGVyPSJ1cmwoI2Ryb3Atc2hhZG93KSIvPjx0ZXh0IHg9IjM2MiIgeT0iMTU3My41IiBzdHlsZT0idGV4dC1hbmNob3I6IG1pZGRsZTsgZm9udC1zaXplOiAxNnB4OyBmb250LXdlaWdodDogNDAwOyIgYWxpZ25tZW50LWJhc2VsaW5lPSJjZW50cmFsIiBjbGFzcz0iYWN0b3IgYWN0b3ItYm94Ij48dHNwYW4geD0iMzYyIiBkeT0iMCI+TGV4ZXI8L3RzcGFuPjwvdGV4dD48L2c+PGc+PHJlY3QgeD0iMCIgeT0iMTU0MSIgZmlsbD0iI2VhZWFlYSIgc3Ryb2tlPSIjNjY2IiB3aWR0aD0iMTUwIiBoZWlnaHQ9IjY1IiBuYW1lPSJDbGllbnQiIHJ4PSI2IiByeT0iNiIgY2xhc3M9ImFjdG9yIGFjdG9yLWJvdHRvbSIgZGF0YS1sb29rPSJuZW8iIGZpbHRlcj0idXJsKCNkcm9wLXNoYWRvdykiLz48dGV4dCB4PSI3NSIgeT0iMTU3My41IiBzdHlsZT0idGV4dC1hbmNob3I6IG1pZGRsZTsgZm9udC1zaXplOiAxNnB4OyBmb250LXdlaWdodDogNDAwOyIgYWxpZ25tZW50LWJhc2VsaW5lPSJjZW50cmFsIiBjbGFzcz0iYWN0b3IgYWN0b3ItYm94Ij48dHNwYW4geD0iNzUiIGR5PSIwIj4iQ2xpZW50L01haW4iPC90c3Bhbj48L3RleHQ+PC9nPjxnPjxsaW5lIGlkPSJhY3RvcjIzIiB4MT0iMTE5Ny41IiB5MT0iNjUiIHgyPSIxMTk3LjUiIHkyPSIxNTQxIiBjbGFzcz0iYWN0b3ItbGluZSAyMDAiIHN0cm9rZS13aWR0aD0iMC41cHgiIHN0cm9rZT0iIzk5OSIgbmFtZT0iQ29kZUdlbiIgZGF0YS1ldD0ibGlmZS1saW5lIiBkYXRhLWlkPSJDb2RlR2VuIi8+PGcgaWQ9InJvb3QtMjMiIGRhdGEtbG9vaz0ibmVvIiBkYXRhLWV0PSJwYXJ0aWNpcGFudCIgZGF0YS1pZD0iQ29kZUdlbiI+PHJlY3QgeD0iMTExOSIgeT0iMCIgZmlsbD0iI2VhZWFlYSIgc3Ryb2tlPSIjNjY2IiB3aWR0aD0iMTU3IiBoZWlnaHQ9IjY1IiBuYW1lPSJDb2RlR2VuIiByeD0iNiIgcnk9IjYiIGNsYXNzPSJhY3RvciBhY3Rvci10b3AiIGRhdGEtbG9vaz0ibmVvIiBmaWx0ZXI9InVybCgjZHJvcC1zaGFkb3cpIi8+PHRleHQgeD0iMTE5Ny41IiB5PSIzMi41IiBzdHlsZT0idGV4dC1hbmNob3I6IG1pZGRsZTsgZm9udC1zaXplOiAxNnB4OyBmb250LXdlaWdodDogNDAwOyIgYWxpZ25tZW50LWJhc2VsaW5lPSJjZW50cmFsIiBjbGFzcz0iYWN0b3IgYWN0b3ItYm94Ij48dHNwYW4geD0iMTE5Ny41IiBkeT0iMCI+IkNvZGVHZW5lcmF0b3IiPC90c3Bhbj48L3RleHQ+PC9nPjwvZz48Zz48bGluZSBpZD0iYWN0b3IyMiIgeDE9Ijk3OCIgeTE9IjY1IiB4Mj0iOTc4IiB5Mj0iMTU0MSIgY2xhc3M9ImFjdG9yLWxpbmUgMjAwIiBzdHJva2Utd2lkdGg9IjAuNXB4IiBzdHJva2U9IiM5OTkiIG5hbWU9IlNlbUEiIGRhdGEtZXQ9ImxpZmUtbGluZSIgZGF0YS1pZD0iU2VtQSIvPjxnIGlkPSJyb290LTIyIiBkYXRhLWxvb2s9Im5lbyIgZGF0YS1ldD0icGFydGljaXBhbnQiIGRhdGEtaWQ9IlNlbUEiPjxyZWN0IHg9Ijg4NyIgeT0iMCIgZmlsbD0iI2VhZWFlYSIgc3Ryb2tlPSIjNjY2IiB3aWR0aD0iMTgyIiBoZWlnaHQ9IjY1IiBuYW1lPSJTZW1BIiByeD0iNiIgcnk9IjYiIGNsYXNzPSJhY3RvciBhY3Rvci10b3AiIGRhdGEtbG9vaz0ibmVvIiBmaWx0ZXI9InVybCgjZHJvcC1zaGFkb3cpIi8+PHRleHQgeD0iOTc4IiB5PSIzMi41IiBzdHlsZT0idGV4dC1hbmNob3I6IG1pZGRsZTsgZm9udC1zaXplOiAxNnB4OyBmb250LXdlaWdodDogNDAwOyIgYWxpZ25tZW50LWJhc2VsaW5lPSJjZW50cmFsIiBjbGFzcz0iYWN0b3IgYWN0b3ItYm94Ij48dHNwYW4geD0iOTc4IiBkeT0iMCI+IlNlbWFudGljQW5hbHl6ZXIiPC90c3Bhbj48L3RleHQ+PC9nPjwvZz48Zz48bGluZSBpZD0iYWN0b3IyMSIgeDE9Ijc2MiIgeTE9IjY1IiB4Mj0iNzYyIiB5Mj0iMTU0MSIgY2xhc3M9ImFjdG9yLWxpbmUgMjAwIiBzdHJva2Utd2lkdGg9IjAuNXB4IiBzdHJva2U9IiM5OTkiIG5hbWU9IkpTT05JTyIgZGF0YS1ldD0ibGlmZS1saW5lIiBkYXRhLWlkPSJKU09OSU8iLz48ZyBpZD0icm9vdC0yMSIgZGF0YS1sb29rPSJuZW8iIGRhdGEtZXQ9InBhcnRpY2lwYW50IiBkYXRhLWlkPSJKU09OSU8iPjxyZWN0IHg9IjY4NyIgeT0iMCIgZmlsbD0iI2VhZWFlYSIgc3Ryb2tlPSIjNjY2IiB3aWR0aD0iMTUwIiBoZWlnaHQ9IjY1IiBuYW1lPSJKU09OSU8iIHJ4PSI2IiByeT0iNiIgY2xhc3M9ImFjdG9yIGFjdG9yLXRvcCIgZGF0YS1sb29rPSJuZW8iIGZpbHRlcj0idXJsKCNkcm9wLXNoYWRvdykiLz48dGV4dCB4PSI3NjIiIHk9IjMyLjUiIHN0eWxlPSJ0ZXh0LWFuY2hvcjogbWlkZGxlOyBmb250LXNpemU6IDE2cHg7IGZvbnQtd2VpZ2h0OiA0MDA7IiBhbGlnbm1lbnQtYmFzZWxpbmU9ImNlbnRyYWwiIGNsYXNzPSJhY3RvciBhY3Rvci1ib3giPjx0c3BhbiB4PSI3NjIiIGR5PSIwIj4iSlNPTi1GaWxlIEkvTyI8L3RzcGFuPjwvdGV4dD48L2c+PC9nPjxnPjxsaW5lIGlkPSJhY3RvcjIwIiB4MT0iNTYyIiB5MT0iNjUiIHgyPSI1NjIiIHkyPSIxNTQxIiBjbGFzcz0iYWN0b3ItbGluZSAyMDAiIHN0cm9rZS13aWR0aD0iMC41cHgiIHN0cm9rZT0iIzk5OSIgbmFtZT0iUGFyc2VyIiBkYXRhLWV0PSJsaWZlLWxpbmUiIGRhdGEtaWQ9IlBhcnNlciIvPjxnIGlkPSJyb290LTIwIiBkYXRhLWxvb2s9Im5lbyIgZGF0YS1ldD0icGFydGljaXBhbnQiIGRhdGEtaWQ9IlBhcnNlciI+PHJlY3QgeD0iNDg3IiB5PSIwIiBmaWxsPSIjZWFlYWVhIiBzdHJva2U9IiM2NjYiIHdpZHRoPSIxNTAiIGhlaWdodD0iNjUiIG5hbWU9IlBhcnNlciIgcng9IjYiIHJ5PSI2IiBjbGFzcz0iYWN0b3IgYWN0b3ItdG9wIiBkYXRhLWxvb2s9Im5lbyIgZmlsdGVyPSJ1cmwoI2Ryb3Atc2hhZG93KSIvPjx0ZXh0IHg9IjU2MiIgeT0iMzIuNSIgc3R5bGU9InRleHQtYW5jaG9yOiBtaWRkbGU7IGZvbnQtc2l6ZTogMTZweDsgZm9udC13ZWlnaHQ6IDQwMDsiIGFsaWdubWVudC1iYXNlbGluZT0iY2VudHJhbCIgY2xhc3M9ImFjdG9yIGFjdG9yLWJveCI+PHRzcGFuIHg9IjU2MiIgZHk9IjAiPlBhcnNlcjwvdHNwYW4+PC90ZXh0PjwvZz48L2c+PGc+PGxpbmUgaWQ9ImFjdG9yMTkiIHgxPSIzNjIiIHkxPSI2NSIgeDI9IjM2MiIgeTI9IjE1NDEiIGNsYXNzPSJhY3Rvci1saW5lIDIwMCIgc3Ryb2tlLXdpZHRoPSIwLjVweCIgc3Ryb2tlPSIjOTk5IiBuYW1lPSJMZXhlciIgZGF0YS1ldD0ibGlmZS1saW5lIiBkYXRhLWlkPSJMZXhlciIvPjxnIGlkPSJyb290LTE5IiBkYXRhLWxvb2s9Im5lbyIgZGF0YS1ldD0icGFydGljaXBhbnQiIGRhdGEtaWQ9IkxleGVyIj48cmVjdCB4PSIyODciIHk9IjAiIGZpbGw9IiNlYWVhZWEiIHN0cm9rZT0iIzY2NiIgd2lkdGg9IjE1MCIgaGVpZ2h0PSI2NSIgbmFtZT0iTGV4ZXIiIHJ4PSI2IiByeT0iNiIgY2xhc3M9ImFjdG9yIGFjdG9yLXRvcCIgZGF0YS1sb29rPSJuZW8iIGZpbHRlcj0idXJsKCNkcm9wLXNoYWRvdykiLz48dGV4dCB4PSIzNjIiIHk9IjMyLjUiIHN0eWxlPSJ0ZXh0LWFuY2hvcjogbWlkZGxlOyBmb250LXNpemU6IDE2cHg7IGZvbnQtd2VpZ2h0OiA0MDA7IiBhbGlnbm1lbnQtYmFzZWxpbmU9ImNlbnRyYWwiIGNsYXNzPSJhY3RvciBhY3Rvci1ib3giPjx0c3BhbiB4PSIzNjIiIGR5PSIwIj5MZXhlcjwvdHNwYW4+PC90ZXh0PjwvZz48L2c+PGc+PGxpbmUgaWQ9ImFjdG9yMTgiIHgxPSI3NSIgeTE9IjY1IiB4Mj0iNzUiIHkyPSIxNTQxIiBjbGFzcz0iYWN0b3ItbGluZSAyMDAiIHN0cm9rZS13aWR0aD0iMC41cHgiIHN0cm9rZT0iIzk5OSIgbmFtZT0iQ2xpZW50IiBkYXRhLWV0PSJsaWZlLWxpbmUiIGRhdGEtaWQ9IkNsaWVudCIvPjxnIGlkPSJyb290LTE4IiBkYXRhLWxvb2s9Im5lbyIgZGF0YS1ldD0icGFydGljaXBhbnQiIGRhdGEtaWQ9IkNsaWVudCI+PHJlY3QgeD0iMCIgeT0iMCIgZmlsbD0iI2VhZWFlYSIgc3Ryb2tlPSIjNjY2IiB3aWR0aD0iMTUwIiBoZWlnaHQ9IjY1IiBuYW1lPSJDbGllbnQiIHJ4PSI2IiByeT0iNiIgY2xhc3M9ImFjdG9yIGFjdG9yLXRvcCIgZGF0YS1sb29rPSJuZW8iIGZpbHRlcj0idXJsKCNkcm9wLXNoYWRvdykiLz48dGV4dCB4PSI3NSIgeT0iMzIuNSIgc3R5bGU9InRleHQtYW5jaG9yOiBtaWRkbGU7IGZvbnQtc2l6ZTogMTZweDsgZm9udC13ZWlnaHQ6IDQwMDsiIGFsaWdubWVudC1iYXNlbGluZT0iY2VudHJhbCIgY2xhc3M9ImFjdG9yIGFjdG9yLWJveCI+PHRzcGFuIHg9Ijc1IiBkeT0iMCI+IkNsaWVudC9NYWluIjwvdHNwYW4+PC90ZXh0PjwvZz48L2c+PHN0eWxlPiNleHBvcnQtc3Zne2ZvbnQtZmFtaWx5OmFyaWFsLHNhbnMtc2VyaWY7Zm9udC1zaXplOjE0cHg7ZmlsbDojMzMzO31Aa2V5ZnJhbWVzIGVkZ2UtYW5pbWF0aW9uLWZyYW1le2Zyb217c3Ryb2tlLWRhc2hvZmZzZXQ6MDt9fUBrZXlmcmFtZXMgZGFzaHt0b3tzdHJva2UtZGFzaG9mZnNldDowO319I2V4cG9ydC1zdmcgLmVkZ2UtYW5pbWF0aW9uLXNsb3d7c3Ryb2tlLWRhc2hhcnJheTo5LDUhaW1wb3J0YW50O3N0cm9rZS1kYXNob2Zmc2V0OjkwMDthbmltYXRpb246ZGFzaCA1MHMgbGluZWFyIGluZmluaXRlO3N0cm9rZS1saW5lY2FwOnJvdW5kO30jZXhwb3J0LXN2ZyAuZWRnZS1hbmltYXRpb24tZmFzdHtzdHJva2UtZGFzaGFycmF5OjksNSFpbXBvcnRhbnQ7c3Ryb2tlLWRhc2hvZmZzZXQ6OTAwO2FuaW1hdGlvbjpkYXNoIDIwcyBsaW5lYXIgaW5maW5pdGU7c3Ryb2tlLWxpbmVjYXA6cm91bmQ7fSNleHBvcnQtc3ZnIC5lcnJvci1pY29ue2ZpbGw6I2ZmZmZmZjt9I2V4cG9ydC1zdmcgLmVycm9yLXRleHR7ZmlsbDojMDAwMDAwO3N0cm9rZTojMDAwMDAwO30jZXhwb3J0LXN2ZyAuZWRnZS10aGlja25lc3Mtbm9ybWFse3N0cm9rZS13aWR0aDoxcHg7fSNleHBvcnQtc3ZnIC5lZGdlLXRoaWNrbmVzcy10aGlja3tzdHJva2Utd2lkdGg6My41cHg7fSNleHBvcnQtc3ZnIC5lZGdlLXBhdHRlcm4tc29saWR7c3Ryb2tlLWRhc2hhcnJheTowO30jZXhwb3J0LXN2ZyAuZWRnZS10aGlja25lc3MtaW52aXNpYmxle3N0cm9rZS13aWR0aDowO2ZpbGw6bm9uZTt9I2V4cG9ydC1zdmcgLmVkZ2UtcGF0dGVybi1kYXNoZWR7c3Ryb2tlLWRhc2hhcnJheTozO30jZXhwb3J0LXN2ZyAuZWRnZS1wYXR0ZXJuLWRvdHRlZHtzdHJva2UtZGFzaGFycmF5OjI7fSNleHBvcnQtc3ZnIC5tYXJrZXJ7ZmlsbDojMDAwMDAwO3N0cm9rZTojMDAwMDAwO30jZXhwb3J0LXN2ZyAubWFya2VyLmNyb3Nze3N0cm9rZTojMDAwMDAwO30jZXhwb3J0LXN2ZyBzdmd7Zm9udC1mYW1pbHk6YXJpYWwsc2Fucy1zZXJpZjtmb250LXNpemU6MTRweDt9I2V4cG9ydC1zdmcgcHttYXJnaW46MDt9I2V4cG9ydC1zdmcgLmFjdG9ye3N0cm9rZTpoc2woMjQwLCA1MCUsIDg2LjA3ODQzMTM3MjUlKTtmaWxsOiNmZmZmZmY7c3Ryb2tlLXdpZHRoOjE7fSNleHBvcnQtc3ZnIHJlY3QuYWN0b3Iub3V0ZXItcGF0aFtkYXRhLWxvb2s9Im5lbyJde2ZpbHRlcjpkcm9wLXNoYWRvdyggMHB4IDFweCAycHggcmdiYSgwLCAwLCAwLCAwLjI1KSk7fSNleHBvcnQtc3ZnIHJlY3Qubm90ZVtkYXRhLWxvb2s9Im5lbyJde3N0cm9rZTpoc2woNTIuNjgyOTI2ODI5MywgNjAlLCA3My45MjE1Njg2Mjc1JSk7ZmlsbDojZmZmNWFkO2ZpbHRlcjpkcm9wLXNoYWRvdyggMHB4IDFweCAycHggcmdiYSgwLCAwLCAwLCAwLjI1KSk7c3Ryb2tlLXdpZHRoOjE7fSNleHBvcnQtc3ZnIHRleHQuYWN0b3ImZ3Q7dHNwYW57ZmlsbDojMzMzO3N0cm9rZTpub25lO30jZXhwb3J0LXN2ZyAuYWN0b3ItbGluZXtzdHJva2U6aHNsKDI0MCwgNTAlLCA4Ni4wNzg0MzEzNzI1JSk7fSNleHBvcnQtc3ZnIC5tZXNzYWdlTGluZTB7c3Ryb2tlLXdpZHRoOjE7c3Ryb2tlLWRhc2hhcnJheTpub25lO3N0cm9rZTojMzMzO30jZXhwb3J0LXN2ZyAubWVzc2FnZUxpbmUxe3N0cm9rZS13aWR0aDoxO3N0cm9rZS1kYXNoYXJyYXk6MiwyO3N0cm9rZTojMzMzO30jZXhwb3J0LXN2ZyAjYXJyb3doZWFkIHBhdGh7ZmlsbDojMzMzO3N0cm9rZTojMzMzO30jZXhwb3J0LXN2ZyAuc2VxdWVuY2VOdW1iZXJ7ZmlsbDojZmZmZmZmO30jZXhwb3J0LXN2ZyAjc2VxdWVuY2VudW1iZXJ7ZmlsbDojMzMzO30jZXhwb3J0LXN2ZyAjY3Jvc3NoZWFkIHBhdGh7ZmlsbDojMzMzO3N0cm9rZTojMzMzO30jZXhwb3J0LXN2ZyAubWVzc2FnZVRleHR7ZmlsbDojMzMzO3N0cm9rZTpub25lO30jZXhwb3J0LXN2ZyAubGFiZWxCb3h7c3Ryb2tlOmhzbCgyNDAsIDUwJSwgODYuMDc4NDMxMzcyNSUpO2ZpbGw6I2ZmZmZmZjtmaWx0ZXI6ZHJvcC1zaGFkb3coIDBweCAxcHggMnB4IHJnYmEoMCwgMCwgMCwgMC4yNSkpO30jZXhwb3J0LXN2ZyAubGFiZWxUZXh0LCNleHBvcnQtc3ZnIC5sYWJlbFRleHQmZ3Q7dHNwYW57ZmlsbDojMzMzO3N0cm9rZTpub25lO30jZXhwb3J0LXN2ZyAubG9vcFRleHQsI2V4cG9ydC1zdmcgLmxvb3BUZXh0Jmd0O3RzcGFue2ZpbGw6IzMzMztzdHJva2U6bm9uZTt9I2V4cG9ydC1zdmcgLmxvb3BMaW5le3N0cm9rZS13aWR0aDoycHg7c3Ryb2tlLWRhc2hhcnJheToyLDI7c3Ryb2tlOmhzbCgyNDAsIDUwJSwgODYuMDc4NDMxMzcyNSUpO2ZpbGw6aHNsKDI0MCwgNTAlLCA4Ni4wNzg0MzEzNzI1JSk7fSNleHBvcnQtc3ZnIC5ub3Rle3N0cm9rZTpoc2woNTIuNjgyOTI2ODI5MywgNjAlLCA3My45MjE1Njg2Mjc1JSk7ZmlsbDojZmZmNWFkO30jZXhwb3J0LXN2ZyAubm90ZVRleHQsI2V4cG9ydC1zdmcgLm5vdGVUZXh0Jmd0O3RzcGFue2ZpbGw6IzMzMztzdHJva2U6bm9uZTt9I2V4cG9ydC1zdmcgLmFjdGl2YXRpb24we2ZpbGw6I0U5RTlGMTtzdHJva2U6aHNsKDI0MCwgMjIuMjIyMjIyMjIyMiUsIDgyLjk0MTE3NjQ3MDYlKTt9I2V4cG9ydC1zdmcgLmFjdGl2YXRpb24xe2ZpbGw6I0U5RTlGMTtzdHJva2U6aHNsKDI0MCwgMjIuMjIyMjIyMjIyMiUsIDgyLjk0MTE3NjQ3MDYlKTt9I2V4cG9ydC1zdmcgLmFjdGl2YXRpb24ye2ZpbGw6I0U5RTlGMTtzdHJva2U6aHNsKDI0MCwgMjIuMjIyMjIyMjIyMiUsIDgyLjk0MTE3NjQ3MDYlKTt9I2V4cG9ydC1zdmcgLmFjdG9yUG9wdXBNZW51e3Bvc2l0aW9uOmFic29sdXRlO30jZXhwb3J0LXN2ZyAuYWN0b3JQb3B1cE1lbnVQYW5lbHtwb3NpdGlvbjphYnNvbHV0ZTtmaWxsOiNmZmZmZmY7Ym94LXNoYWRvdzowcHggOHB4IDE2cHggMHB4IHJnYmEoMCwwLDAsMC4yKTtmaWx0ZXI6ZHJvcC1zaGFkb3coM3B4IDVweCAycHggcmdiKDAgMCAwIC8gMC40KSk7fSNleHBvcnQtc3ZnIC5hY3Rvci1tYW4gY2lyY2xlLCNleHBvcnQtc3ZnIGxpbmV7ZmlsbDojZmZmZmZmO3N0cm9rZS13aWR0aDoycHg7fSNleHBvcnQtc3ZnIGcgcmVjdC5yZWN0e2ZpbHRlcjpkcm9wLXNoYWRvdyggMHB4IDFweCAycHggcmdiYSgwLCAwLCAwLCAwLjI1KSk7c3Ryb2tlOiMwMDAwMDA7c3Ryb2tlLXdpZHRoOjE7fSNleHBvcnQtc3ZnIC5ub2RlIC5uZW8tbm9kZXtzdHJva2U6IzAwMDAwMDt9I2V4cG9ydC1zdmcgW2RhdGEtbG9vaz0ibmVvIl0ubm9kZSByZWN0LCNleHBvcnQtc3ZnIFtkYXRhLWxvb2s9Im5lbyJdLmNsdXN0ZXIgcmVjdCwjZXhwb3J0LXN2ZyBbZGF0YS1sb29rPSJuZW8iXS5ub2RlIHBvbHlnb257c3Ryb2tlOnVybCgjZXhwb3J0LXN2Zy1ncmFkaWVudCk7ZmlsdGVyOmRyb3Atc2hhZG93KCAwcHggMXB4IDJweCByZ2JhKDAsIDAsIDAsIDAuMjUpKTt9I2V4cG9ydC1zdmcgW2RhdGEtbG9vaz0ibmVvIl0ubm9kZSBwYXRoe3N0cm9rZTp1cmwoI2V4cG9ydC1zdmctZ3JhZGllbnQpO3N0cm9rZS13aWR0aDoxO30jZXhwb3J0LXN2ZyBbZGF0YS1sb29rPSJuZW8iXS5ub2RlIC5vdXRlci1wYXRoe2ZpbHRlcjpkcm9wLXNoYWRvdyggMHB4IDFweCAycHggcmdiYSgwLCAwLCAwLCAwLjI1KSk7fSNleHBvcnQtc3ZnIFtkYXRhLWxvb2s9Im5lbyJdLm5vZGUgLm5lby1saW5lIHBhdGh7c3Ryb2tlOiMwMDAwMDA7ZmlsdGVyOm5vbmU7fSNleHBvcnQtc3ZnIFtkYXRhLWxvb2s9Im5lbyJdLm5vZGUgY2lyY2xle3N0cm9rZTp1cmwoI2V4cG9ydC1zdmctZ3JhZGllbnQpO2ZpbHRlcjpkcm9wLXNoYWRvdyggMHB4IDFweCAycHggcmdiYSgwLCAwLCAwLCAwLjI1KSk7fSNleHBvcnQtc3ZnIFtkYXRhLWxvb2s9Im5lbyJdLm5vZGUgY2lyY2xlIC5zdGF0ZS1zdGFydHtmaWxsOiMwMDAwMDA7fSNleHBvcnQtc3ZnIFtkYXRhLWxvb2s9Im5lbyJdLnN0YXRlZGlhZ3JhbS1jbHVzdGVyIHJlY3R7ZmlsbDojZmZmZmZmO3N0cm9rZTp1cmwoI2V4cG9ydC1zdmctZ3JhZGllbnQpO3N0cm9rZS13aWR0aDoxO30jZXhwb3J0LXN2ZyBbZGF0YS1sb29rPSJuZW8iXS5pY29uLXNoYXBlIC5pY29ue2ZpbGw6dXJsKCNleHBvcnQtc3ZnLWdyYWRpZW50KTtmaWx0ZXI6ZHJvcC1zaGFkb3coIDBweCAxcHggMnB4IHJnYmEoMCwgMCwgMCwgMC4yNSkpO30jZXhwb3J0LXN2ZyBbZGF0YS1sb29rPSJuZW8iXS5pY29uLXNoYXBlIC5pY29uLW5lbyBwYXRoe3N0cm9rZTp1cmwoI2V4cG9ydC1zdmctZ3JhZGllbnQpO2ZpbHRlcjpkcm9wLXNoYWRvdyggMHB4IDFweCAycHggcmdiYSgwLCAwLCAwLCAwLjI1KSk7fSNleHBvcnQtc3ZnIDpyb290ey0tbWVybWFpZC1mb250LWZhbWlseToidHJlYnVjaGV0IG1zIix2ZXJkYW5hLGFyaWFsLHNhbnMtc2VyaWY7fTwvc3R5bGU+PGcvPjxkZWZzPjxzeW1ib2wgaWQ9ImNvbXB1dGVyIiB3aWR0aD0iMjQiIGhlaWdodD0iMjQiPjxwYXRoIHRyYW5zZm9ybT0ic2NhbGUoLjUpIiBkPSJNMiAydjEzaDIwdi0xM2gtMjB6bTE4IDExaC0xNnYtOWgxNnY5em0tMTAuMjI4IDZsLjQ2Ni0xaDMuNTI0bC40NjcgMWgtNC40NTd6bTE0LjIyOCAzaC0yNGwyLTZoMi4xMDRsLTEuMzMgNGgxOC40NWwtMS4yOTctNGgyLjA3M2wyIDZ6bS01LTEwaC0xNHYtN2gxNHY3eiIvPjwvc3ltYm9sPjwvZGVmcz48ZGVmcz48c3ltYm9sIGlkPSJkYXRhYmFzZSIgZmlsbC1ydWxlPSJldmVub2RkIiBjbGlwLXJ1bGU9ImV2ZW5vZGQiPjxwYXRoIHRyYW5zZm9ybT0ic2NhbGUoLjUpIiBkPSJNMTIuMjU4LjAwMWwuMjU2LjAwNC4yNTUuMDA1LjI1My4wMDguMjUxLjAxLjI0OS4wMTIuMjQ3LjAxNS4yNDYuMDE2LjI0Mi4wMTkuMjQxLjAyLjIzOS4wMjMuMjM2LjAyNC4yMzMuMDI3LjIzMS4wMjguMjI5LjAzMS4yMjUuMDMyLjIyMy4wMzQuMjIuMDM2LjIxNy4wMzguMjE0LjA0LjIxMS4wNDEuMjA4LjA0My4yMDUuMDQ1LjIwMS4wNDYuMTk4LjA0OC4xOTQuMDUuMTkxLjA1MS4xODcuMDUzLjE4My4wNTQuMTguMDU2LjE3NS4wNTcuMTcyLjA1OS4xNjguMDYuMTYzLjA2MS4xNi4wNjMuMTU1LjA2NC4xNS4wNjYuMDc0LjAzMy4wNzMuMDMzLjA3MS4wMzQuMDcuMDM0LjA2OS4wMzUuMDY4LjAzNS4wNjcuMDM1LjA2Ni4wMzUuMDY0LjAzNi4wNjQuMDM2LjA2Mi4wMzYuMDYuMDM2LjA2LjAzNy4wNTguMDM3LjA1OC4wMzcuMDU1LjAzOC4wNTUuMDM4LjA1My4wMzguMDUyLjAzOC4wNTEuMDM5LjA1LjAzOS4wNDguMDM5LjA0Ny4wMzkuMDQ1LjA0LjA0NC4wNC4wNDMuMDQuMDQxLjA0LjA0LjA0MS4wMzkuMDQxLjAzNy4wNDEuMDM2LjA0MS4wMzQuMDQxLjAzMy4wNDIuMDMyLjA0Mi4wMy4wNDIuMDI5LjA0Mi4wMjcuMDQyLjAyNi4wNDMuMDI0LjA0My4wMjMuMDQzLjAyMS4wNDMuMDIuMDQzLjAxOC4wNDQuMDE3LjA0My4wMTUuMDQ0LjAxMy4wNDQuMDEyLjA0NC4wMTEuMDQ1LjAwOS4wNDQuMDA3LjA0NS4wMDYuMDQ1LjAwNC4wNDUuMDAyLjA0NS4wMDEuMDQ1djE3bC0uMDAxLjA0NS0uMDAyLjA0NS0uMDA0LjA0NS0uMDA2LjA0NS0uMDA3LjA0NS0uMDA5LjA0NC0uMDExLjA0NS0uMDEyLjA0NC0uMDEzLjA0NC0uMDE1LjA0NC0uMDE3LjA0My0uMDE4LjA0NC0uMDIuMDQzLS4wMjEuMDQzLS4wMjMuMDQzLS4wMjQuMDQzLS4wMjYuMDQzLS4wMjcuMDQyLS4wMjkuMDQyLS4wMy4wNDItLjAzMi4wNDItLjAzMy4wNDItLjAzNC4wNDEtLjAzNi4wNDEtLjAzNy4wNDEtLjAzOS4wNDEtLjA0LjA0MS0uMDQxLjA0LS4wNDMuMDQtLjA0NC4wNC0uMDQ1LjA0LS4wNDcuMDM5LS4wNDguMDM5LS4wNS4wMzktLjA1MS4wMzktLjA1Mi4wMzgtLjA1My4wMzgtLjA1NS4wMzgtLjA1NS4wMzgtLjA1OC4wMzctLjA1OC4wMzctLjA2LjAzNy0uMDYuMDM2LS4wNjIuMDM2LS4wNjQuMDM2LS4wNjQuMDM2LS4wNjYuMDM1LS4wNjcuMDM1LS4wNjguMDM1LS4wNjkuMDM1LS4wNy4wMzQtLjA3MS4wMzQtLjA3My4wMzMtLjA3NC4wMzMtLjE1LjA2Ni0uMTU1LjA2NC0uMTYuMDYzLS4xNjMuMDYxLS4xNjguMDYtLjE3Mi4wNTktLjE3NS4wNTctLjE4LjA1Ni0uMTgzLjA1NC0uMTg3LjA1My0uMTkxLjA1MS0uMTk0LjA1LS4xOTguMDQ4LS4yMDEuMDQ2LS4yMDUuMDQ1LS4yMDguMDQzLS4yMTEuMDQxLS4yMTQuMDQtLjIxNy4wMzgtLjIyLjAzNi0uMjIzLjAzNC0uMjI1LjAzMi0uMjI5LjAzMS0uMjMxLjAyOC0uMjMzLjAyNy0uMjM2LjAyNC0uMjM5LjAyMy0uMjQxLjAyLS4yNDIuMDE5LS4yNDYuMDE2LS4yNDcuMDE1LS4yNDkuMDEyLS4yNTEuMDEtLjI1My4wMDgtLjI1NS4wMDUtLjI1Ni4wMDQtLjI1OC4wMDEtLjI1OC0uMDAxLS4yNTYtLjAwNC0uMjU1LS4wMDUtLjI1My0uMDA4LS4yNTEtLjAxLS4yNDktLjAxMi0uMjQ3LS4wMTUtLjI0NS0uMDE2LS4yNDMtLjAxOS0uMjQxLS4wMi0uMjM4LS4wMjMtLjIzNi0uMDI0LS4yMzQtLjAyNy0uMjMxLS4wMjgtLjIyOC0uMDMxLS4yMjYtLjAzMi0uMjIzLS4wMzQtLjIyLS4wMzYtLjIxNy0uMDM4LS4yMTQtLjA0LS4yMTEtLjA0MS0uMjA4LS4wNDMtLjIwNC0uMDQ1LS4yMDEtLjA0Ni0uMTk4LS4wNDgtLjE5NS0uMDUtLjE5LS4wNTEtLjE4Ny0uMDUzLS4xODQtLjA1NC0uMTc5LS4wNTYtLjE3Ni0uMDU3LS4xNzItLjA1OS0uMTY3LS4wNi0uMTY0LS4wNjEtLjE1OS0uMDYzLS4xNTUtLjA2NC0uMTUxLS4wNjYtLjA3NC0uMDMzLS4wNzItLjAzMy0uMDcyLS4wMzQtLjA3LS4wMzQtLjA2OS0uMDM1LS4wNjgtLjAzNS0uMDY3LS4wMzUtLjA2Ni0uMDM1LS4wNjQtLjAzNi0uMDYzLS4wMzYtLjA2Mi0uMDM2LS4wNjEtLjAzNi0uMDYtLjAzNy0uMDU4LS4wMzctLjA1Ny0uMDM3LS4wNTYtLjAzOC0uMDU1LS4wMzgtLjA1My0uMDM4LS4wNTItLjAzOC0uMDUxLS4wMzktLjA0OS0uMDM5LS4wNDktLjAzOS0uMDQ2LS4wMzktLjA0Ni0uMDQtLjA0NC0uMDQtLjA0My0uMDQtLjA0MS0uMDQtLjA0LS4wNDEtLjAzOS0uMDQxLS4wMzctLjA0MS0uMDM2LS4wNDEtLjAzNC0uMDQxLS4wMzMtLjA0Mi0uMDMyLS4wNDItLjAzLS4wNDItLjAyOS0uMDQyLS4wMjctLjA0Mi0uMDI2LS4wNDMtLjAyNC0uMDQzLS4wMjMtLjA0My0uMDIxLS4wNDMtLjAyLS4wNDMtLjAxOC0uMDQ0LS4wMTctLjA0My0uMDE1LS4wNDQtLjAxMy0uMDQ0LS4wMTItLjA0NC0uMDExLS4wNDUtLjAwOS0uMDQ0LS4wMDctLjA0NS0uMDA2LS4wNDUtLjAwNC0uMDQ1LS4wMDItLjA0NS0uMDAxLS4wNDV2LTE3bC4wMDEtLjA0NS4wMDItLjA0NS4wMDQtLjA0NS4wMDYtLjA0NS4wMDctLjA0NS4wMDktLjA0NC4wMTEtLjA0NS4wMTItLjA0NC4wMTMtLjA0NC4wMTUtLjA0NC4wMTctLjA0My4wMTgtLjA0NC4wMi0uMDQzLjAyMS0uMDQzLjAyMy0uMDQzLjAyNC0uMDQzLjAyNi0uMDQzLjAyNy0uMDQyLjAyOS0uMDQyLjAzLS4wNDIuMDMyLS4wNDIuMDMzLS4wNDIuMDM0LS4wNDEuMDM2LS4wNDEuMDM3LS4wNDEuMDM5LS4wNDEuMDQtLjA0MS4wNDEtLjA0LjA0My0uMDQuMDQ0LS4wNC4wNDYtLjA0LjA0Ni0uMDM5LjA0OS0uMDM5LjA0OS0uMDM5LjA1MS0uMDM5LjA1Mi0uMDM4LjA1My0uMDM4LjA1NS0uMDM4LjA1Ni0uMDM4LjA1Ny0uMDM3LjA1OC0uMDM3LjA2LS4wMzcuMDYxLS4wMzYuMDYyLS4wMzYuMDYzLS4wMzYuMDY0LS4wMzYuMDY2LS4wMzUuMDY3LS4wMzUuMDY4LS4wMzUuMDY5LS4wMzUuMDctLjAzNC4wNzItLjAzNC4wNzItLjAzMy4wNzQtLjAzMy4xNTEtLjA2Ni4xNTUtLjA2NC4xNTktLjA2My4xNjQtLjA2MS4xNjctLjA2LjE3Mi0uMDU5LjE3Ni0uMDU3LjE3OS0uMDU2LjE4NC0uMDU0LjE4Ny0uMDUzLjE5LS4wNTEuMTk1LS4wNS4xOTgtLjA0OC4yMDEtLjA0Ni4yMDQtLjA0NS4yMDgtLjA0My4yMTEtLjA0MS4yMTQtLjA0LjIxNy0uMDM4LjIyLS4wMzYuMjIzLS4wMzQuMjI2LS4wMzIuMjI4LS4wMzEuMjMxLS4wMjguMjM0LS4wMjcuMjM2LS4wMjQuMjM4LS4wMjMuMjQxLS4wMi4yNDMtLjAxOS4yNDUtLjAxNi4yNDctLjAxNS4yNDktLjAxMi4yNTEtLjAxLjI1My0uMDA4LjI1NS0uMDA1LjI1Ni0uMDA0LjI1OC0uMDAxLjI1OC4wMDF6bS05LjI1OCAyMC40OTl2LjAxbC4wMDEuMDIxLjAwMy4wMjEuMDA0LjAyMi4wMDUuMDIxLjAwNi4wMjIuMDA3LjAyMi4wMDkuMDIzLjAxLjAyMi4wMTEuMDIzLjAxMi4wMjMuMDEzLjAyMy4wMTUuMDIzLjAxNi4wMjQuMDE3LjAyMy4wMTguMDI0LjAxOS4wMjQuMDIxLjAyNC4wMjIuMDI1LjAyMy4wMjQuMDI0LjAyNS4wNTIuMDQ5LjA1Ni4wNS4wNjEuMDUxLjA2Ni4wNTEuMDcuMDUxLjA3NS4wNTEuMDc5LjA1Mi4wODQuMDUyLjA4OC4wNTIuMDkyLjA1Mi4wOTcuMDUyLjEwMi4wNTEuMTA1LjA1Mi4xMS4wNTIuMTE0LjA1MS4xMTkuMDUxLjEyMy4wNTEuMTI3LjA1LjEzMS4wNS4xMzUuMDUuMTM5LjA0OC4xNDQuMDQ5LjE0Ny4wNDcuMTUyLjA0Ny4xNTUuMDQ3LjE2LjA0NS4xNjMuMDQ1LjE2Ny4wNDMuMTcxLjA0My4xNzYuMDQxLjE3OC4wNDEuMTgzLjAzOS4xODcuMDM5LjE5LjAzNy4xOTQuMDM1LjE5Ny4wMzUuMjAyLjAzMy4yMDQuMDMxLjIwOS4wMy4yMTIuMDI5LjIxNi4wMjcuMjE5LjAyNS4yMjIuMDI0LjIyNi4wMjEuMjMuMDIuMjMzLjAxOC4yMzYuMDE2LjI0LjAxNS4yNDMuMDEyLjI0Ni4wMS4yNDkuMDA4LjI1My4wMDUuMjU2LjAwNC4yNTkuMDAxLjI2LS4wMDEuMjU3LS4wMDQuMjU0LS4wMDUuMjUtLjAwOC4yNDctLjAxMS4yNDQtLjAxMi4yNDEtLjAxNC4yMzctLjAxNi4yMzMtLjAxOC4yMzEtLjAyMS4yMjYtLjAyMS4yMjQtLjAyNC4yMi0uMDI2LjIxNi0uMDI3LjIxMi0uMDI4LjIxLS4wMzEuMjA1LS4wMzEuMjAyLS4wMzQuMTk4LS4wMzQuMTk0LS4wMzYuMTkxLS4wMzcuMTg3LS4wMzkuMTgzLS4wNC4xNzktLjA0LjE3NS0uMDQyLjE3Mi0uMDQzLjE2OC0uMDQ0LjE2My0uMDQ1LjE2LS4wNDYuMTU1LS4wNDYuMTUyLS4wNDcuMTQ4LS4wNDguMTQzLS4wNDkuMTM5LS4wNDkuMTM2LS4wNS4xMzEtLjA1LjEyNi0uMDUuMTIzLS4wNTEuMTE4LS4wNTIuMTE0LS4wNTEuMTEtLjA1Mi4xMDYtLjA1Mi4xMDEtLjA1Mi4wOTYtLjA1Mi4wOTItLjA1Mi4wODgtLjA1My4wODMtLjA1MS4wNzktLjA1Mi4wNzQtLjA1Mi4wNy0uMDUxLjA2NS0uMDUxLjA2LS4wNTEuMDU2LS4wNS4wNTEtLjA1LjAyMy0uMDI0LjAyMy0uMDI1LjAyMS0uMDI0LjAyLS4wMjQuMDE5LS4wMjQuMDE4LS4wMjQuMDE3LS4wMjQuMDE1LS4wMjMuMDE0LS4wMjQuMDEzLS4wMjMuMDEyLS4wMjMuMDEtLjAyMy4wMS0uMDIyLjAwOC0uMDIyLjAwNi0uMDIyLjAwNi0uMDIyLjAwNC0uMDIyLjAwNC0uMDIxLjAwMS0uMDIxLjAwMS0uMDIxdi00LjEyN2wtLjA3Ny4wNTUtLjA4LjA1My0uMDgzLjA1NC0uMDg1LjA1My0uMDg3LjA1Mi0uMDkuMDUyLS4wOTMuMDUxLS4wOTUuMDUtLjA5Ny4wNS0uMS4wNDktLjEwMi4wNDktLjEwNS4wNDgtLjEwNi4wNDctLjEwOS4wNDctLjExMS4wNDYtLjExNC4wNDUtLjExNS4wNDUtLjExOC4wNDQtLjEyLjA0My0uMTIyLjA0Mi0uMTI0LjA0Mi0uMTI2LjA0MS0uMTI4LjA0LS4xMy4wNC0uMTMyLjAzOC0uMTM0LjAzOC0uMTM1LjAzNy0uMTM4LjAzNy0uMTM5LjAzNS0uMTQyLjAzNS0uMTQzLjAzNC0uMTQ0LjAzMy0uMTQ3LjAzMi0uMTQ4LjAzMS0uMTUuMDMtLjE1MS4wMy0uMTUzLjAyOS0uMTU0LjAyNy0uMTU2LjAyNy0uMTU4LjAyNi0uMTU5LjAyNS0uMTYxLjAyNC0uMTYyLjAyMy0uMTYzLjAyMi0uMTY1LjAyMS0uMTY2LjAyLS4xNjcuMDE5LS4xNjkuMDE4LS4xNjkuMDE3LS4xNzEuMDE2LS4xNzMuMDE1LS4xNzMuMDE0LS4xNzUuMDEzLS4xNzUuMDEyLS4xNzcuMDExLS4xNzguMDEtLjE3OS4wMDgtLjE3OS4wMDgtLjE4MS4wMDYtLjE4Mi4wMDUtLjE4Mi4wMDQtLjE4NC4wMDMtLjE4NC4wMDJoLS4zN2wtLjE4NC0uMDAyLS4xODQtLjAwMy0uMTgyLS4wMDQtLjE4Mi0uMDA1LS4xODEtLjAwNi0uMTc5LS4wMDgtLjE3OS0uMDA4LS4xNzgtLjAxLS4xNzYtLjAxMS0uMTc2LS4wMTItLjE3NS0uMDEzLS4xNzMtLjAxNC0uMTcyLS4wMTUtLjE3MS0uMDE2LS4xNy0uMDE3LS4xNjktLjAxOC0uMTY3LS4wMTktLjE2Ni0uMDItLjE2NS0uMDIxLS4xNjMtLjAyMi0uMTYyLS4wMjMtLjE2MS0uMDI0LS4xNTktLjAyNS0uMTU3LS4wMjYtLjE1Ni0uMDI3LS4xNTUtLjAyNy0uMTUzLS4wMjktLjE1MS0uMDMtLjE1LS4wMy0uMTQ4LS4wMzEtLjE0Ni0uMDMyLS4xNDUtLjAzMy0uMTQzLS4wMzQtLjE0MS0uMDM1LS4xNC0uMDM1LS4xMzctLjAzNy0uMTM2LS4wMzctLjEzNC0uMDM4LS4xMzItLjAzOC0uMTMtLjA0LS4xMjgtLjA0LS4xMjYtLjA0MS0uMTI0LS4wNDItLjEyMi0uMDQyLS4xMi0uMDQ0LS4xMTctLjA0My0uMTE2LS4wNDUtLjExMy0uMDQ1LS4xMTItLjA0Ni0uMTA5LS4wNDctLjEwNi0uMDQ3LS4xMDUtLjA0OC0uMTAyLS4wNDktLjEtLjA0OS0uMDk3LS4wNS0uMDk1LS4wNS0uMDkzLS4wNTItLjA5LS4wNTEtLjA4Ny0uMDUyLS4wODUtLjA1My0uMDgzLS4wNTQtLjA4LS4wNTQtLjA3Ny0uMDU0djQuMTI3em0wLTUuNjU0di4wMTFsLjAwMS4wMjEuMDAzLjAyMS4wMDQuMDIxLjAwNS4wMjIuMDA2LjAyMi4wMDcuMDIyLjAwOS4wMjIuMDEuMDIyLjAxMS4wMjMuMDEyLjAyMy4wMTMuMDIzLjAxNS4wMjQuMDE2LjAyMy4wMTcuMDI0LjAxOC4wMjQuMDE5LjAyNC4wMjEuMDI0LjAyMi4wMjQuMDIzLjAyNS4wMjQuMDI0LjA1Mi4wNS4wNTYuMDUuMDYxLjA1LjA2Ni4wNTEuMDcuMDUxLjA3NS4wNTIuMDc5LjA1MS4wODQuMDUyLjA4OC4wNTIuMDkyLjA1Mi4wOTcuMDUyLjEwMi4wNTIuMTA1LjA1Mi4xMS4wNTEuMTE0LjA1MS4xMTkuMDUyLjEyMy4wNS4xMjcuMDUxLjEzMS4wNS4xMzUuMDQ5LjEzOS4wNDkuMTQ0LjA0OC4xNDcuMDQ4LjE1Mi4wNDcuMTU1LjA0Ni4xNi4wNDUuMTYzLjA0NS4xNjcuMDQ0LjE3MS4wNDIuMTc2LjA0Mi4xNzguMDQuMTgzLjA0LjE4Ny4wMzguMTkuMDM3LjE5NC4wMzYuMTk3LjAzNC4yMDIuMDMzLjIwNC4wMzIuMjA5LjAzLjIxMi4wMjguMjE2LjAyNy4yMTkuMDI1LjIyMi4wMjQuMjI2LjAyMi4yMy4wMi4yMzMuMDE4LjIzNi4wMTYuMjQuMDE0LjI0My4wMTIuMjQ2LjAxLjI0OS4wMDguMjUzLjAwNi4yNTYuMDAzLjI1OS4wMDEuMjYtLjAwMS4yNTctLjAwMy4yNTQtLjAwNi4yNS0uMDA4LjI0Ny0uMDEuMjQ0LS4wMTIuMjQxLS4wMTUuMjM3LS4wMTYuMjMzLS4wMTguMjMxLS4wMi4yMjYtLjAyMi4yMjQtLjAyNC4yMi0uMDI1LjIxNi0uMDI3LjIxMi0uMDI5LjIxLS4wMy4yMDUtLjAzMi4yMDItLjAzMy4xOTgtLjAzNS4xOTQtLjAzNi4xOTEtLjAzNy4xODctLjAzOS4xODMtLjAzOS4xNzktLjA0MS4xNzUtLjA0Mi4xNzItLjA0My4xNjgtLjA0NC4xNjMtLjA0NS4xNi0uMDQ1LjE1NS0uMDQ3LjE1Mi0uMDQ3LjE0OC0uMDQ4LjE0My0uMDQ4LjEzOS0uMDUuMTM2LS4wNDkuMTMxLS4wNS4xMjYtLjA1MS4xMjMtLjA1MS4xMTgtLjA1MS4xMTQtLjA1Mi4xMS0uMDUyLjEwNi0uMDUyLjEwMS0uMDUyLjA5Ni0uMDUyLjA5Mi0uMDUyLjA4OC0uMDUyLjA4My0uMDUyLjA3OS0uMDUyLjA3NC0uMDUxLjA3LS4wNTIuMDY1LS4wNTEuMDYtLjA1LjA1Ni0uMDUxLjA1MS0uMDQ5LjAyMy0uMDI1LjAyMy0uMDI0LjAyMS0uMDI1LjAyLS4wMjQuMDE5LS4wMjQuMDE4LS4wMjQuMDE3LS4wMjQuMDE1LS4wMjMuMDE0LS4wMjMuMDEzLS4wMjQuMDEyLS4wMjIuMDEtLjAyMy4wMS0uMDIzLjAwOC0uMDIyLjAwNi0uMDIyLjAwNi0uMDIyLjAwNC0uMDIxLjAwNC0uMDIyLjAwMS0uMDIxLjAwMS0uMDIxdi00LjEzOWwtLjA3Ny4wNTQtLjA4LjA1NC0uMDgzLjA1NC0uMDg1LjA1Mi0uMDg3LjA1My0uMDkuMDUxLS4wOTMuMDUxLS4wOTUuMDUxLS4wOTcuMDUtLjEuMDQ5LS4xMDIuMDQ5LS4xMDUuMDQ4LS4xMDYuMDQ3LS4xMDkuMDQ3LS4xMTEuMDQ2LS4xMTQuMDQ1LS4xMTUuMDQ0LS4xMTguMDQ0LS4xMi4wNDQtLjEyMi4wNDItLjEyNC4wNDItLjEyNi4wNDEtLjEyOC4wNC0uMTMuMDM5LS4xMzIuMDM5LS4xMzQuMDM4LS4xMzUuMDM3LS4xMzguMDM2LS4xMzkuMDM2LS4xNDIuMDM1LS4xNDMuMDMzLS4xNDQuMDMzLS4xNDcuMDMzLS4xNDguMDMxLS4xNS4wMy0uMTUxLjAzLS4xNTMuMDI4LS4xNTQuMDI4LS4xNTYuMDI3LS4xNTguMDI2LS4xNTkuMDI1LS4xNjEuMDI0LS4xNjIuMDIzLS4xNjMuMDIyLS4xNjUuMDIxLS4xNjYuMDItLjE2Ny4wMTktLjE2OS4wMTgtLjE2OS4wMTctLjE3MS4wMTYtLjE3My4wMTUtLjE3My4wMTQtLjE3NS4wMTMtLjE3NS4wMTItLjE3Ny4wMTEtLjE3OC4wMDktLjE3OS4wMDktLjE3OS4wMDctLjE4MS4wMDctLjE4Mi4wMDUtLjE4Mi4wMDQtLjE4NC4wMDMtLjE4NC4wMDJoLS4zN2wtLjE4NC0uMDAyLS4xODQtLjAwMy0uMTgyLS4wMDQtLjE4Mi0uMDA1LS4xODEtLjAwNy0uMTc5LS4wMDctLjE3OS0uMDA5LS4xNzgtLjAwOS0uMTc2LS4wMTEtLjE3Ni0uMDEyLS4xNzUtLjAxMy0uMTczLS4wMTQtLjE3Mi0uMDE1LS4xNzEtLjAxNi0uMTctLjAxNy0uMTY5LS4wMTgtLjE2Ny0uMDE5LS4xNjYtLjAyLS4xNjUtLjAyMS0uMTYzLS4wMjItLjE2Mi0uMDIzLS4xNjEtLjAyNC0uMTU5LS4wMjUtLjE1Ny0uMDI2LS4xNTYtLjAyNy0uMTU1LS4wMjgtLjE1My0uMDI4LS4xNTEtLjAzLS4xNS0uMDMtLjE0OC0uMDMxLS4xNDYtLjAzMy0uMTQ1LS4wMzMtLjE0My0uMDMzLS4xNDEtLjAzNS0uMTQtLjAzNi0uMTM3LS4wMzYtLjEzNi0uMDM3LS4xMzQtLjAzOC0uMTMyLS4wMzktLjEzLS4wMzktLjEyOC0uMDQtLjEyNi0uMDQxLS4xMjQtLjA0Mi0uMTIyLS4wNDMtLjEyLS4wNDMtLjExNy0uMDQ0LS4xMTYtLjA0NC0uMTEzLS4wNDYtLjExMi0uMDQ2LS4xMDktLjA0Ni0uMTA2LS4wNDctLjEwNS0uMDQ4LS4xMDItLjA0OS0uMS0uMDQ5LS4wOTctLjA1LS4wOTUtLjA1MS0uMDkzLS4wNTEtLjA5LS4wNTEtLjA4Ny0uMDUzLS4wODUtLjA1Mi0uMDgzLS4wNTQtLjA4LS4wNTQtLjA3Ny0uMDU0djQuMTM5em0wLTUuNjY2di4wMTFsLjAwMS4wMi4wMDMuMDIyLjAwNC4wMjEuMDA1LjAyMi4wMDYuMDIxLjAwNy4wMjIuMDA5LjAyMy4wMS4wMjIuMDExLjAyMy4wMTIuMDIzLjAxMy4wMjMuMDE1LjAyMy4wMTYuMDI0LjAxNy4wMjQuMDE4LjAyMy4wMTkuMDI0LjAyMS4wMjUuMDIyLjAyNC4wMjMuMDI0LjAyNC4wMjUuMDUyLjA1LjA1Ni4wNS4wNjEuMDUuMDY2LjA1MS4wNy4wNTEuMDc1LjA1Mi4wNzkuMDUxLjA4NC4wNTIuMDg4LjA1Mi4wOTIuMDUyLjA5Ny4wNTIuMTAyLjA1Mi4xMDUuMDUxLjExLjA1Mi4xMTQuMDUxLjExOS4wNTEuMTIzLjA1MS4xMjcuMDUuMTMxLjA1LjEzNS4wNS4xMzkuMDQ5LjE0NC4wNDguMTQ3LjA0OC4xNTIuMDQ3LjE1NS4wNDYuMTYuMDQ1LjE2My4wNDUuMTY3LjA0My4xNzEuMDQzLjE3Ni4wNDIuMTc4LjA0LjE4My4wNC4xODcuMDM4LjE5LjAzNy4xOTQuMDM2LjE5Ny4wMzQuMjAyLjAzMy4yMDQuMDMyLjIwOS4wMy4yMTIuMDI4LjIxNi4wMjcuMjE5LjAyNS4yMjIuMDI0LjIyNi4wMjEuMjMuMDIuMjMzLjAxOC4yMzYuMDE3LjI0LjAxNC4yNDMuMDEyLjI0Ni4wMS4yNDkuMDA4LjI1My4wMDYuMjU2LjAwMy4yNTkuMDAxLjI2LS4wMDEuMjU3LS4wMDMuMjU0LS4wMDYuMjUtLjAwOC4yNDctLjAxLjI0NC0uMDEzLjI0MS0uMDE0LjIzNy0uMDE2LjIzMy0uMDE4LjIzMS0uMDIuMjI2LS4wMjIuMjI0LS4wMjQuMjItLjAyNS4yMTYtLjAyNy4yMTItLjAyOS4yMS0uMDMuMjA1LS4wMzIuMjAyLS4wMzMuMTk4LS4wMzUuMTk0LS4wMzYuMTkxLS4wMzcuMTg3LS4wMzkuMTgzLS4wMzkuMTc5LS4wNDEuMTc1LS4wNDIuMTcyLS4wNDMuMTY4LS4wNDQuMTYzLS4wNDUuMTYtLjA0NS4xNTUtLjA0Ny4xNTItLjA0Ny4xNDgtLjA0OC4xNDMtLjA0OS4xMzktLjA0OS4xMzYtLjA0OS4xMzEtLjA1MS4xMjYtLjA1LjEyMy0uMDUxLjExOC0uMDUyLjExNC0uMDUxLjExLS4wNTIuMTA2LS4wNTIuMTAxLS4wNTIuMDk2LS4wNTIuMDkyLS4wNTIuMDg4LS4wNTIuMDgzLS4wNTIuMDc5LS4wNTIuMDc0LS4wNTIuMDctLjA1MS4wNjUtLjA1MS4wNi0uMDUxLjA1Ni0uMDUuMDUxLS4wNDkuMDIzLS4wMjUuMDIzLS4wMjUuMDIxLS4wMjQuMDItLjAyNC4wMTktLjAyNC4wMTgtLjAyNC4wMTctLjAyNC4wMTUtLjAyMy4wMTQtLjAyNC4wMTMtLjAyMy4wMTItLjAyMy4wMS0uMDIyLjAxLS4wMjMuMDA4LS4wMjIuMDA2LS4wMjIuMDA2LS4wMjIuMDA0LS4wMjIuMDA0LS4wMjEuMDAxLS4wMjEuMDAxLS4wMjF2LTQuMTUzbC0uMDc3LjA1NC0uMDguMDU0LS4wODMuMDUzLS4wODUuMDUzLS4wODcuMDUzLS4wOS4wNTEtLjA5My4wNTEtLjA5NS4wNTEtLjA5Ny4wNS0uMS4wNDktLjEwMi4wNDgtLjEwNS4wNDgtLjEwNi4wNDgtLjEwOS4wNDYtLjExMS4wNDYtLjExNC4wNDYtLjExNS4wNDQtLjExOC4wNDQtLjEyLjA0My0uMTIyLjA0My0uMTI0LjA0Mi0uMTI2LjA0MS0uMTI4LjA0LS4xMy4wMzktLjEzMi4wMzktLjEzNC4wMzgtLjEzNS4wMzctLjEzOC4wMzYtLjEzOS4wMzYtLjE0Mi4wMzQtLjE0My4wMzQtLjE0NC4wMzMtLjE0Ny4wMzItLjE0OC4wMzItLjE1LjAzLS4xNTEuMDMtLjE1My4wMjgtLjE1NC4wMjgtLjE1Ni4wMjctLjE1OC4wMjYtLjE1OS4wMjQtLjE2MS4wMjQtLjE2Mi4wMjMtLjE2My4wMjMtLjE2NS4wMjEtLjE2Ni4wMi0uMTY3LjAxOS0uMTY5LjAxOC0uMTY5LjAxNy0uMTcxLjAxNi0uMTczLjAxNS0uMTczLjAxNC0uMTc1LjAxMy0uMTc1LjAxMi0uMTc3LjAxLS4xNzguMDEtLjE3OS4wMDktLjE3OS4wMDctLjE4MS4wMDYtLjE4Mi4wMDYtLjE4Mi4wMDQtLjE4NC4wMDMtLjE4NC4wMDEtLjE4NS4wMDEtLjE4NS0uMDAxLS4xODQtLjAwMS0uMTg0LS4wMDMtLjE4Mi0uMDA0LS4xODItLjAwNi0uMTgxLS4wMDYtLjE3OS0uMDA3LS4xNzktLjAwOS0uMTc4LS4wMS0uMTc2LS4wMS0uMTc2LS4wMTItLjE3NS0uMDEzLS4xNzMtLjAxNC0uMTcyLS4wMTUtLjE3MS0uMDE2LS4xNy0uMDE3LS4xNjktLjAxOC0uMTY3LS4wMTktLjE2Ni0uMDItLjE2NS0uMDIxLS4xNjMtLjAyMy0uMTYyLS4wMjMtLjE2MS0uMDI0LS4xNTktLjAyNC0uMTU3LS4wMjYtLjE1Ni0uMDI3LS4xNTUtLjAyOC0uMTUzLS4wMjgtLjE1MS0uMDMtLjE1LS4wMy0uMTQ4LS4wMzItLjE0Ni0uMDMyLS4xNDUtLjAzMy0uMTQzLS4wMzQtLjE0MS0uMDM0LS4xNC0uMDM2LS4xMzctLjAzNi0uMTM2LS4wMzctLjEzNC0uMDM4LS4xMzItLjAzOS0uMTMtLjAzOS0uMTI4LS4wNDEtLjEyNi0uMDQxLS4xMjQtLjA0MS0uMTIyLS4wNDMtLjEyLS4wNDMtLjExNy0uMDQ0LS4xMTYtLjA0NC0uMTEzLS4wNDYtLjExMi0uMDQ2LS4xMDktLjA0Ni0uMTA2LS4wNDgtLjEwNS0uMDQ4LS4xMDItLjA0OC0uMS0uMDUtLjA5Ny0uMDQ5LS4wOTUtLjA1MS0uMDkzLS4wNTEtLjA5LS4wNTItLjA4Ny0uMDUyLS4wODUtLjA1My0uMDgzLS4wNTMtLjA4LS4wNTQtLjA3Ny0uMDU0djQuMTUzem04Ljc0LTguMTc5bC0uMjU3LjAwNC0uMjU0LjAwNS0uMjUuMDA4LS4yNDcuMDExLS4yNDQuMDEyLS4yNDEuMDE0LS4yMzcuMDE2LS4yMzMuMDE4LS4yMzEuMDIxLS4yMjYuMDIyLS4yMjQuMDIzLS4yMi4wMjYtLjIxNi4wMjctLjIxMi4wMjgtLjIxLjAzMS0uMjA1LjAzMi0uMjAyLjAzMy0uMTk4LjAzNC0uMTk0LjAzNi0uMTkxLjAzOC0uMTg3LjAzOC0uMTgzLjA0LS4xNzkuMDQxLS4xNzUuMDQyLS4xNzIuMDQzLS4xNjguMDQzLS4xNjMuMDQ1LS4xNi4wNDYtLjE1NS4wNDYtLjE1Mi4wNDgtLjE0OC4wNDgtLjE0My4wNDgtLjEzOS4wNDktLjEzNi4wNS0uMTMxLjA1LS4xMjYuMDUxLS4xMjMuMDUxLS4xMTguMDUxLS4xMTQuMDUyLS4xMS4wNTItLjEwNi4wNTItLjEwMS4wNTItLjA5Ni4wNTItLjA5Mi4wNTItLjA4OC4wNTItLjA4My4wNTItLjA3OS4wNTItLjA3NC4wNTEtLjA3LjA1Mi0uMDY1LjA1MS0uMDYuMDUtLjA1Ni4wNS0uMDUxLjA1LS4wMjMuMDI1LS4wMjMuMDI0LS4wMjEuMDI0LS4wMi4wMjUtLjAxOS4wMjQtLjAxOC4wMjQtLjAxNy4wMjMtLjAxNS4wMjQtLjAxNC4wMjMtLjAxMy4wMjMtLjAxMi4wMjMtLjAxLjAyMy0uMDEuMDIyLS4wMDguMDIyLS4wMDYuMDIzLS4wMDYuMDIxLS4wMDQuMDIyLS4wMDQuMDIxLS4wMDEuMDIxLS4wMDEuMDIxLjAwMS4wMjEuMDAxLjAyMS4wMDQuMDIxLjAwNC4wMjIuMDA2LjAyMS4wMDYuMDIzLjAwOC4wMjIuMDEuMDIyLjAxLjAyMy4wMTIuMDIzLjAxMy4wMjMuMDE0LjAyMy4wMTUuMDI0LjAxNy4wMjMuMDE4LjAyNC4wMTkuMDI0LjAyLjAyNS4wMjEuMDI0LjAyMy4wMjQuMDIzLjAyNS4wNTEuMDUuMDU2LjA1LjA2LjA1LjA2NS4wNTEuMDcuMDUyLjA3NC4wNTEuMDc5LjA1Mi4wODMuMDUyLjA4OC4wNTIuMDkyLjA1Mi4wOTYuMDUyLjEwMS4wNTIuMTA2LjA1Mi4xMS4wNTIuMTE0LjA1Mi4xMTguMDUxLjEyMy4wNTEuMTI2LjA1MS4xMzEuMDUuMTM2LjA1LjEzOS4wNDkuMTQzLjA0OC4xNDguMDQ4LjE1Mi4wNDguMTU1LjA0Ni4xNi4wNDYuMTYzLjA0NS4xNjguMDQzLjE3Mi4wNDMuMTc1LjA0Mi4xNzkuMDQxLjE4My4wNC4xODcuMDM4LjE5MS4wMzguMTk0LjAzNi4xOTguMDM0LjIwMi4wMzMuMjA1LjAzMi4yMS4wMzEuMjEyLjAyOC4yMTYuMDI3LjIyLjAyNi4yMjQuMDIzLjIyNi4wMjIuMjMxLjAyMS4yMzMuMDE4LjIzNy4wMTYuMjQxLjAxNC4yNDQuMDEyLjI0Ny4wMTEuMjUuMDA4LjI1NC4wMDUuMjU3LjAwNC4yNi4wMDEuMjYtLjAwMS4yNTctLjAwNC4yNTQtLjAwNS4yNS0uMDA4LjI0Ny0uMDExLjI0NC0uMDEyLjI0MS0uMDE0LjIzNy0uMDE2LjIzMy0uMDE4LjIzMS0uMDIxLjIyNi0uMDIyLjIyNC0uMDIzLjIyLS4wMjYuMjE2LS4wMjcuMjEyLS4wMjguMjEtLjAzMS4yMDUtLjAzMi4yMDItLjAzMy4xOTgtLjAzNC4xOTQtLjAzNi4xOTEtLjAzOC4xODctLjAzOC4xODMtLjA0LjE3OS0uMDQxLjE3NS0uMDQyLjE3Mi0uMDQzLjE2OC0uMDQzLjE2My0uMDQ1LjE2LS4wNDYuMTU1LS4wNDYuMTUyLS4wNDguMTQ4LS4wNDguMTQzLS4wNDguMTM5LS4wNDkuMTM2LS4wNS4xMzEtLjA1LjEyNi0uMDUxLjEyMy0uMDUxLjExOC0uMDUxLjExNC0uMDUyLjExLS4wNTIuMTA2LS4wNTIuMTAxLS4wNTIuMDk2LS4wNTIuMDkyLS4wNTIuMDg4LS4wNTIuMDgzLS4wNTIuMDc5LS4wNTIuMDc0LS4wNTEuMDctLjA1Mi4wNjUtLjA1MS4wNi0uMDUuMDU2LS4wNS4wNTEtLjA1LjAyMy0uMDI1LjAyMy0uMDI0LjAyMS0uMDI0LjAyLS4wMjUuMDE5LS4wMjQuMDE4LS4wMjQuMDE3LS4wMjMuMDE1LS4wMjQuMDE0LS4wMjMuMDEzLS4wMjMuMDEyLS4wMjMuMDEtLjAyMy4wMS0uMDIyLjAwOC0uMDIyLjAwNi0uMDIzLjAwNi0uMDIxLjAwNC0uMDIyLjAwNC0uMDIxLjAwMS0uMDIxLjAwMS0uMDIxLS4wMDEtLjAyMS0uMDAxLS4wMjEtLjAwNC0uMDIxLS4wMDQtLjAyMi0uMDA2LS4wMjEtLjAwNi0uMDIzLS4wMDgtLjAyMi0uMDEtLjAyMi0uMDEtLjAyMy0uMDEyLS4wMjMtLjAxMy0uMDIzLS4wMTQtLjAyMy0uMDE1LS4wMjQtLjAxNy0uMDIzLS4wMTgtLjAyNC0uMDE5LS4wMjQtLjAyLS4wMjUtLjAyMS0uMDI0LS4wMjMtLjAyNC0uMDIzLS4wMjUtLjA1MS0uMDUtLjA1Ni0uMDUtLjA2LS4wNS0uMDY1LS4wNTEtLjA3LS4wNTItLjA3NC0uMDUxLS4wNzktLjA1Mi0uMDgzLS4wNTItLjA4OC0uMDUyLS4wOTItLjA1Mi0uMDk2LS4wNTItLjEwMS0uMDUyLS4xMDYtLjA1Mi0uMTEtLjA1Mi0uMTE0LS4wNTItLjExOC0uMDUxLS4xMjMtLjA1MS0uMTI2LS4wNTEtLjEzMS0uMDUtLjEzNi0uMDUtLjEzOS0uMDQ5LS4xNDMtLjA0OC0uMTQ4LS4wNDgtLjE1Mi0uMDQ4LS4xNTUtLjA0Ni0uMTYtLjA0Ni0uMTYzLS4wNDUtLjE2OC0uMDQzLS4xNzItLjA0My0uMTc1LS4wNDItLjE3OS0uMDQxLS4xODMtLjA0LS4xODctLjAzOC0uMTkxLS4wMzgtLjE5NC0uMDM2LS4xOTgtLjAzNC0uMjAyLS4wMzMtLjIwNS0uMDMyLS4yMS0uMDMxLS4yMTItLjAyOC0uMjE2LS4wMjctLjIyLS4wMjYtLjIyNC0uMDIzLS4yMjYtLjAyMi0uMjMxLS4wMjEtLjIzMy0uMDE4LS4yMzctLjAxNi0uMjQxLS4wMTQtLjI0NC0uMDEyLS4yNDctLjAxMS0uMjUtLjAwOC0uMjU0LS4wMDUtLjI1Ny0uMDA0LS4yNi0uMDAxLS4yNi4wMDF6Ii8+PC9zeW1ib2w+PC9kZWZzPjxkZWZzPjxzeW1ib2wgaWQ9ImNsb2NrIiB3aWR0aD0iMjQiIGhlaWdodD0iMjQiPjxwYXRoIHRyYW5zZm9ybT0ic2NhbGUoLjUpIiBkPSJNMTIgMmM1LjUxNCAwIDEwIDQuNDg2IDEwIDEwcy00LjQ4NiAxMC0xMCAxMC0xMC00LjQ4Ni0xMC0xMCA0LjQ4Ni0xMCAxMC0xMHptMC0yYy02LjYyNyAwLTEyIDUuMzczLTEyIDEyczUuMzczIDEyIDEyIDEyIDEyLTUuMzczIDEyLTEyLTUuMzczLTEyLTEyLTEyem01Ljg0OCAxMi40NTljLjIwMi4wMzguMjAyLjMzMy4wMDEuMzcyLTEuOTA3LjM2MS02LjA0NSAxLjExMS02LjU0NyAxLjExMS0uNzE5IDAtMS4zMDEtLjU4Mi0xLjMwMS0xLjMwMSAwLS41MTIuNzctNS40NDcgMS4xMjUtNy40NDUuMDM0LS4xOTIuMzEyLS4xODEuMzQzLjAxNGwuOTg1IDYuMjM4IDUuMzk0IDEuMDExeiIvPjwvc3ltYm9sPjwvZGVmcz48ZGVmcz48bWFya2VyIGlkPSJhcnJvd2hlYWQiIHJlZlg9IjcuOSIgcmVmWT0iNSIgbWFya2VyVW5pdHM9InVzZXJTcGFjZU9uVXNlIiBtYXJrZXJXaWR0aD0iMTIiIG1hcmtlckhlaWdodD0iMTIiIG9yaWVudD0iYXV0by1zdGFydC1yZXZlcnNlIj48cGF0aCBkPSJNIC0xIDAgTCAxMCA1IEwgMCAxMCB6Ii8+PC9tYXJrZXI+PC9kZWZzPjxkZWZzPjxtYXJrZXIgaWQ9ImNyb3NzaGVhZCIgbWFya2VyV2lkdGg9IjE1IiBtYXJrZXJIZWlnaHQ9IjgiIG9yaWVudD0iYXV0byIgcmVmWD0iNCIgcmVmWT0iNC41Ij48cGF0aCBmaWxsPSJub25lIiBzdHJva2U9IiMwMDAwMDAiIHN0cm9rZS13aWR0aD0iMXB0IiBkPSJNIDEsMiBMIDYsNyBNIDYsMiBMIDEsNyIgc3R5bGU9InN0cm9rZS1kYXNoYXJyYXk6IDAsIDA7Ii8+PC9tYXJrZXI+PC9kZWZzPjxkZWZzPjxtYXJrZXIgaWQ9ImZpbGxlZC1oZWFkIiByZWZYPSIxNS41IiByZWZZPSI3IiBtYXJrZXJXaWR0aD0iMjAiIG1hcmtlckhlaWdodD0iMjgiIG9yaWVudD0iYXV0byI+PHBhdGggZD0iTSAxOCw3IEw5LDEzIEwxNCw3IEw5LDEgWiIvPjwvbWFya2VyPjwvZGVmcz48ZGVmcz48bWFya2VyIGlkPSJzZXF1ZW5jZW51bWJlciIgcmVmWD0iMTUiIHJlZlk9IjE1IiBtYXJrZXJXaWR0aD0iNjAiIG1hcmtlckhlaWdodD0iNDAiIG9yaWVudD0iYXV0byI+PGNpcmNsZSBjeD0iMTUiIGN5PSIxNSIgcj0iNiIvPjwvbWFya2VyPjwvZGVmcz48ZyBkYXRhLWV0PSJjb250cm9sLXN0cnVjdHVyZSIgZGF0YS1pZD0iaTciPjxsaW5lIHgxPSI2NCIgeTE9IjEyMyIgeDI9IjM3MyIgeTI9IjEyMyIgY2xhc3M9Imxvb3BMaW5lIi8+PGxpbmUgeDE9IjM3MyIgeTE9IjEyMyIgeDI9IjM3MyIgeTI9IjM1NyIgY2xhc3M9Imxvb3BMaW5lIi8+PGxpbmUgeDE9IjY0IiB5MT0iMzU3IiB4Mj0iMzczIiB5Mj0iMzU3IiBjbGFzcz0ibG9vcExpbmUiLz48bGluZSB4MT0iNjQiIHkxPSIxMjMiIHgyPSI2NCIgeTI9IjM1NyIgY2xhc3M9Imxvb3BMaW5lIi8+PGxpbmUgeDE9IjY0IiB5MT0iMjY5IiB4Mj0iMzczIiB5Mj0iMjY5IiBjbGFzcz0ibG9vcExpbmUiIHN0eWxlPSJzdHJva2UtZGFzaGFycmF5OiAzLCAzOyIvPjxwb2x5Z29uIHBvaW50cz0iNjQsMTIzIDExNCwxMjMgMTE0LDE1MSAxMDUuNiwxNTggNjQsMTU4IiBjbGFzcz0ibGFiZWxCb3giLz48dGV4dCB4PSI4OSIgeT0iMTQzIiB0ZXh0LWFuY2hvcj0ibWlkZGxlIiBhbGlnbm1lbnQtYmFzZWxpbmU9Im1pZGRsZSIgc3R5bGU9ImZvbnQtc2l6ZTogMTZweDsgZm9udC13ZWlnaHQ6IDQwMDsiIGNsYXNzPSJsYWJlbFRleHQiPmFsdDwvdGV4dD48dGV4dCB4PSIyNDMuNSIgeT0iMTQxIiB0ZXh0LWFuY2hvcj0ibWlkZGxlIiBzdHlsZT0iZm9udC1zaXplOiAxNnB4OyBmb250LXdlaWdodDogNDAwOyIgY2xhc3M9Imxvb3BUZXh0Ij48dHNwYW4geD0iMjQzLjUiPltsZXhpbmcgZXJyb3JdPC90c3Bhbj48L3RleHQ+PHRleHQgeD0iMjE4LjUiIHk9IjI4NyIgdGV4dC1hbmNob3I9Im1pZGRsZSIgc3R5bGU9ImZvbnQtc2l6ZTogMTZweDsgZm9udC13ZWlnaHQ6IDQwMDsiIGNsYXNzPSJsb29wVGV4dCI+W29rXTwvdGV4dD48L2c+PGcgZGF0YS1ldD0iY29udHJvbC1zdHJ1Y3R1cmUiIGRhdGEtaWQ9ImkxNCI+PGxpbmUgeDE9IjY0IiB5MT0iNDE1IiB4Mj0iNTczIiB5Mj0iNDE1IiBjbGFzcz0ibG9vcExpbmUiLz48bGluZSB4MT0iNTczIiB5MT0iNDE1IiB4Mj0iNTczIiB5Mj0iNjQ5IiBjbGFzcz0ibG9vcExpbmUiLz48bGluZSB4MT0iNjQiIHkxPSI2NDkiIHgyPSI1NzMiIHkyPSI2NDkiIGNsYXNzPSJsb29wTGluZSIvPjxsaW5lIHgxPSI2NCIgeTE9IjQxNSIgeDI9IjY0IiB5Mj0iNjQ5IiBjbGFzcz0ibG9vcExpbmUiLz48bGluZSB4MT0iNjQiIHkxPSI1NjEiIHgyPSI1NzMiIHkyPSI1NjEiIGNsYXNzPSJsb29wTGluZSIgc3R5bGU9InN0cm9rZS1kYXNoYXJyYXk6IDMsIDM7Ii8+PHBvbHlnb24gcG9pbnRzPSI2NCw0MTUgMTE0LDQxNSAxMTQsNDQzIDEwNS42LDQ1MCA2NCw0NTAiIGNsYXNzPSJsYWJlbEJveCIvPjx0ZXh0IHg9Ijg5IiB5PSI0MzUiIHRleHQtYW5jaG9yPSJtaWRkbGUiIGFsaWdubWVudC1iYXNlbGluZT0ibWlkZGxlIiBzdHlsZT0iZm9udC1zaXplOiAxNnB4OyBmb250LXdlaWdodDogNDAwOyIgY2xhc3M9ImxhYmVsVGV4dCI+YWx0PC90ZXh0Pjx0ZXh0IHg9IjM0My41IiB5PSI0MzMiIHRleHQtYW5jaG9yPSJtaWRkbGUiIHN0eWxlPSJmb250LXNpemU6IDE2cHg7IGZvbnQtd2VpZ2h0OiA0MDA7IiBjbGFzcz0ibG9vcFRleHQiPjx0c3BhbiB4PSIzNDMuNSI+W3N5bnRheCBlcnJvcl08L3RzcGFuPjwvdGV4dD48dGV4dCB4PSIzMTguNSIgeT0iNTc5IiB0ZXh0LWFuY2hvcj0ibWlkZGxlIiBzdHlsZT0iZm9udC1zaXplOiAxNnB4OyBmb250LXdlaWdodDogNDAwOyIgY2xhc3M9Imxvb3BUZXh0Ij5bb2tdPC90ZXh0PjwvZz48ZyBkYXRhLWV0PSJjb250cm9sLXN0cnVjdHVyZSIgZGF0YS1pZD0iaTI1Ij48bGluZSB4MT0iNjQiIHkxPSI4OTkiIHgyPSI5ODkiIHkyPSI4OTkiIGNsYXNzPSJsb29wTGluZSIvPjxsaW5lIHgxPSI5ODkiIHkxPSI4OTkiIHgyPSI5ODkiIHkyPSIxMTMzIiBjbGFzcz0ibG9vcExpbmUiLz48bGluZSB4MT0iNjQiIHkxPSIxMTMzIiB4Mj0iOTg5IiB5Mj0iMTEzMyIgY2xhc3M9Imxvb3BMaW5lIi8+PGxpbmUgeDE9IjY0IiB5MT0iODk5IiB4Mj0iNjQiIHkyPSIxMTMzIiBjbGFzcz0ibG9vcExpbmUiLz48bGluZSB4MT0iNjQiIHkxPSIxMDQ1IiB4Mj0iOTg5IiB5Mj0iMTA0NSIgY2xhc3M9Imxvb3BMaW5lIiBzdHlsZT0ic3Ryb2tlLWRhc2hhcnJheTogMywgMzsiLz48cG9seWdvbiBwb2ludHM9IjY0LDg5OSAxMTQsODk5IDExNCw5MjcgMTA1LjYsOTM0IDY0LDkzNCIgY2xhc3M9ImxhYmVsQm94Ii8+PHRleHQgeD0iODkiIHk9IjkxOSIgdGV4dC1hbmNob3I9Im1pZGRsZSIgYWxpZ25tZW50LWJhc2VsaW5lPSJtaWRkbGUiIHN0eWxlPSJmb250LXNpemU6IDE2cHg7IGZvbnQtd2VpZ2h0OiA0MDA7IiBjbGFzcz0ibGFiZWxUZXh0Ij5hbHQ8L3RleHQ+PHRleHQgeD0iNTUxLjUiIHk9IjkxNyIgdGV4dC1hbmNob3I9Im1pZGRsZSIgc3R5bGU9ImZvbnQtc2l6ZTogMTZweDsgZm9udC13ZWlnaHQ6IDQwMDsiIGNsYXNzPSJsb29wVGV4dCI+PHRzcGFuIHg9IjU1MS41Ij5bc2VtYW50aWMgZXJyb3JdPC90c3Bhbj48L3RleHQ+PHRleHQgeD0iNTI2LjUiIHk9IjEwNjMiIHRleHQtYW5jaG9yPSJtaWRkbGUiIHN0eWxlPSJmb250LXNpemU6IDE2cHg7IGZvbnQtd2VpZ2h0OiA0MDA7IiBjbGFzcz0ibG9vcFRleHQiPltva108L3RleHQ+PC9nPjxnIGRhdGEtZXQ9ImNvbnRyb2wtc3RydWN0dXJlIiBkYXRhLWlkPSJpMzQiPjxsaW5lIHgxPSI2NCIgeTE9IjExOTEiIHgyPSIxMjA4LjUiIHkyPSIxMTkxIiBjbGFzcz0ibG9vcExpbmUiLz48bGluZSB4MT0iMTIwOC41IiB5MT0iMTE5MSIgeDI9IjEyMDguNSIgeTI9IjE1MjEiIGNsYXNzPSJsb29wTGluZSIvPjxsaW5lIHgxPSI2NCIgeTE9IjE1MjEiIHgyPSIxMjA4LjUiIHkyPSIxNTIxIiBjbGFzcz0ibG9vcExpbmUiLz48bGluZSB4MT0iNjQiIHkxPSIxMTkxIiB4Mj0iNjQiIHkyPSIxNTIxIiBjbGFzcz0ibG9vcExpbmUiLz48bGluZSB4MT0iNjQiIHkxPSIxMjg5IiB4Mj0iMTIwOC41IiB5Mj0iMTI4OSIgY2xhc3M9Imxvb3BMaW5lIiBzdHlsZT0ic3Ryb2tlLWRhc2hhcnJheTogMywgMzsiLz48cG9seWdvbiBwb2ludHM9IjY0LDExOTEgMTE0LDExOTEgMTE0LDEyMTkgMTA1LjYsMTIyNiA2NCwxMjI2IiBjbGFzcz0ibGFiZWxCb3giLz48dGV4dCB4PSI4OSIgeT0iMTIxMSIgdGV4dC1hbmNob3I9Im1pZGRsZSIgYWxpZ25tZW50LWJhc2VsaW5lPSJtaWRkbGUiIHN0eWxlPSJmb250LXNpemU6IDE2cHg7IGZvbnQtd2VpZ2h0OiA0MDA7IiBjbGFzcz0ibGFiZWxUZXh0Ij5hbHQ8L3RleHQ+PHRleHQgeD0iNjYxLjI1IiB5PSIxMjA5IiB0ZXh0LWFuY2hvcj0ibWlkZGxlIiBzdHlsZT0iZm9udC1zaXplOiAxNnB4OyBmb250LXdlaWdodDogNDAwOyIgY2xhc3M9Imxvb3BUZXh0Ij48dHNwYW4geD0iNjYxLjI1Ij5bY29kZWdlbiBlcnJvcl08L3RzcGFuPjwvdGV4dD48dGV4dCB4PSI2MzYuMjUiIHk9IjEzMDciIHRleHQtYW5jaG9yPSJtaWRkbGUiIHN0eWxlPSJmb250LXNpemU6IDE2cHg7IGZvbnQtd2VpZ2h0OiA0MDA7IiBjbGFzcz0ibG9vcFRleHQiPltzdWNjZXNzXTwvdGV4dD48L2c+PHRleHQgeD0iMjE2IiB5PSI4MCIgdGV4dC1hbmNob3I9Im1pZGRsZSIgYWxpZ25tZW50LWJhc2VsaW5lPSJtaWRkbGUiIHN0eWxlPSJmb250LXNpemU6IDE2cHg7IGZvbnQtd2VpZ2h0OiA0MDA7IiBjbGFzcz0ibWVzc2FnZVRleHQiIGR5PSIxZW0iPnNjYW5Ub2tlbnMoc291cmNlLmhhbmFtaSk8L3RleHQ+PGxpbmUgeDE9Ijc2IiB5MT0iMTEzIiB4Mj0iMzU1IiB5Mj0iMTEzIiBjbGFzcz0ibWVzc2FnZUxpbmUwIiBkYXRhLWV0PSJtZXNzYWdlIiBkYXRhLWlkPSJpMSIgZGF0YS1mcm9tPSJDbGllbnQiIGRhdGEtdG89IkxleGVyIiBzdHJva2Utd2lkdGg9IjIiIHN0cm9rZT0ibm9uZSIgbWFya2VyLWVuZD0idXJsKCNhcnJvd2hlYWQpIiBtYXJrZXItc3RhcnQ9InVybCgjc2VxdWVuY2VudW1iZXIpIiBzdHlsZT0iZmlsbDogbm9uZTsiLz48dGV4dCB4PSI3NiIgeT0iMTE3IiBmb250LWZhbWlseT0ic2Fucy1zZXJpZiIgZm9udC1zaXplPSIxMnB4IiB0ZXh0LWFuY2hvcj0ibWlkZGxlIiBjbGFzcz0ic2VxdWVuY2VOdW1iZXIiPjE8L3RleHQ+PHRleHQgeD0iMjIyIiB5PSIxNzMiIHRleHQtYW5jaG9yPSJtaWRkbGUiIGFsaWdubWVudC1iYXNlbGluZT0ibWlkZGxlIiBzdHlsZT0iZm9udC1zaXplOiAxNnB4OyBmb250LXdlaWdodDogNDAwOyIgY2xhc3M9Im1lc3NhZ2VUZXh0IiBkeT0iMWVtIj5MZXhFcnJvcjwvdGV4dD48bGluZSB4MT0iMzYxIiB5MT0iMjA2IiB4Mj0iODIiIHkyPSIyMDYiIGNsYXNzPSJtZXNzYWdlTGluZTEiIGRhdGEtZXQ9Im1lc3NhZ2UiIGRhdGEtaWQ9ImkzIiBkYXRhLWZyb209IkxleGVyIiBkYXRhLXRvPSJDbGllbnQiIHN0cm9rZS13aWR0aD0iMiIgc3Ryb2tlPSJub25lIiBzdHlsZT0ic3Ryb2tlLWRhc2hhcnJheTogMywgMzsgZmlsbDogbm9uZTsiIG1hcmtlci1lbmQ9InVybCgjYXJyb3doZWFkKSIgbWFya2VyLXN0YXJ0PSJ1cmwoI3NlcXVlbmNlbnVtYmVyKSIvPjx0ZXh0IHg9IjM2MSIgeT0iMjEwIiBmb250LWZhbWlseT0ic2Fucy1zZXJpZiIgZm9udC1zaXplPSIxMnB4IiB0ZXh0LWFuY2hvcj0ibWlkZGxlIiBjbGFzcz0ic2VxdWVuY2VOdW1iZXIiPjI8L3RleHQ+PHRleHQgeD0iMjE2IiB5PSIyMjEiIHRleHQtYW5jaG9yPSJtaWRkbGUiIGFsaWdubWVudC1iYXNlbGluZT0ibWlkZGxlIiBzdHlsZT0iZm9udC1zaXplOiAxNnB4OyBmb250LXdlaWdodDogNDAwOyIgY2xhc3M9Im1lc3NhZ2VUZXh0IiBkeT0iMWVtIj5hYm9ydCgpPC90ZXh0PjxsaW5lIHgxPSI3NiIgeTE9IjI1NCIgeDI9IjM1NSIgeTI9IjI1NCIgY2xhc3M9Im1lc3NhZ2VMaW5lMSIgZGF0YS1ldD0ibWVzc2FnZSIgZGF0YS1pZD0iaTQiIGRhdGEtZnJvbT0iQ2xpZW50IiBkYXRhLXRvPSJMZXhlciIgc3Ryb2tlLXdpZHRoPSIyIiBzdHJva2U9Im5vbmUiIHN0eWxlPSJzdHJva2UtZGFzaGFycmF5OiAzLCAzOyBmaWxsOiBub25lOyIgbWFya2VyLWVuZD0idXJsKCNhcnJvd2hlYWQpIiBtYXJrZXItc3RhcnQ9InVybCgjc2VxdWVuY2VudW1iZXIpIi8+PHRleHQgeD0iNzYiIHk9IjI1OCIgZm9udC1mYW1pbHk9InNhbnMtc2VyaWYiIGZvbnQtc2l6ZT0iMTJweCIgdGV4dC1hbmNob3I9Im1pZGRsZSIgY2xhc3M9InNlcXVlbmNlTnVtYmVyIj4zPC90ZXh0Pjx0ZXh0IHg9IjIyMiIgeT0iMzE0IiB0ZXh0LWFuY2hvcj0ibWlkZGxlIiBhbGlnbm1lbnQtYmFzZWxpbmU9Im1pZGRsZSIgc3R5bGU9ImZvbnQtc2l6ZTogMTZweDsgZm9udC13ZWlnaHQ6IDQwMDsiIGNsYXNzPSJtZXNzYWdlVGV4dCIgZHk9IjFlbSI+dG9rZW5zPC90ZXh0PjxsaW5lIHgxPSIzNjEiIHkxPSIzNDciIHgyPSI4MiIgeTI9IjM0NyIgY2xhc3M9Im1lc3NhZ2VMaW5lMSIgZGF0YS1ldD0ibWVzc2FnZSIgZGF0YS1pZD0iaTYiIGRhdGEtZnJvbT0iTGV4ZXIiIGRhdGEtdG89IkNsaWVudCIgc3Ryb2tlLXdpZHRoPSIyIiBzdHJva2U9Im5vbmUiIHN0eWxlPSJzdHJva2UtZGFzaGFycmF5OiAzLCAzOyBmaWxsOiBub25lOyIgbWFya2VyLWVuZD0idXJsKCNhcnJvd2hlYWQpIiBtYXJrZXItc3RhcnQ9InVybCgjc2VxdWVuY2VudW1iZXIpIi8+PHRleHQgeD0iMzYxIiB5PSIzNTEiIGZvbnQtZmFtaWx5PSJzYW5zLXNlcmlmIiBmb250LXNpemU9IjEycHgiIHRleHQtYW5jaG9yPSJtaWRkbGUiIGNsYXNzPSJzZXF1ZW5jZU51bWJlciI+NDwvdGV4dD48dGV4dCB4PSIzMTYiIHk9IjM3MiIgdGV4dC1hbmNob3I9Im1pZGRsZSIgYWxpZ25tZW50LWJhc2VsaW5lPSJtaWRkbGUiIHN0eWxlPSJmb250LXNpemU6IDE2cHg7IGZvbnQtd2VpZ2h0OiA0MDA7IiBjbGFzcz0ibWVzc2FnZVRleHQiIGR5PSIxZW0iPnBhcnNlKHRva2Vucyk8L3RleHQ+PGxpbmUgeDE9Ijc2IiB5MT0iNDA1IiB4Mj0iNTU1IiB5Mj0iNDA1IiBjbGFzcz0ibWVzc2FnZUxpbmUwIiBkYXRhLWV0PSJtZXNzYWdlIiBkYXRhLWlkPSJpOCIgZGF0YS1mcm9tPSJDbGllbnQiIGRhdGEtdG89IlBhcnNlciIgc3Ryb2tlLXdpZHRoPSIyIiBzdHJva2U9Im5vbmUiIG1hcmtlci1lbmQ9InVybCgjYXJyb3doZWFkKSIgbWFya2VyLXN0YXJ0PSJ1cmwoI3NlcXVlbmNlbnVtYmVyKSIgc3R5bGU9ImZpbGw6IG5vbmU7Ii8+PHRleHQgeD0iNzYiIHk9IjQwOSIgZm9udC1mYW1pbHk9InNhbnMtc2VyaWYiIGZvbnQtc2l6ZT0iMTJweCIgdGV4dC1hbmNob3I9Im1pZGRsZSIgY2xhc3M9InNlcXVlbmNlTnVtYmVyIj41PC90ZXh0Pjx0ZXh0IHg9IjMyMiIgeT0iNDY1IiB0ZXh0LWFuY2hvcj0ibWlkZGxlIiBhbGlnbm1lbnQtYmFzZWxpbmU9Im1pZGRsZSIgc3R5bGU9ImZvbnQtc2l6ZTogMTZweDsgZm9udC13ZWlnaHQ6IDQwMDsiIGNsYXNzPSJtZXNzYWdlVGV4dCIgZHk9IjFlbSI+UGFyc2VFcnJvcjwvdGV4dD48bGluZSB4MT0iNTYxIiB5MT0iNDk4IiB4Mj0iODIiIHkyPSI0OTgiIGNsYXNzPSJtZXNzYWdlTGluZTEiIGRhdGEtZXQ9Im1lc3NhZ2UiIGRhdGEtaWQ9ImkxMCIgZGF0YS1mcm9tPSJQYXJzZXIiIGRhdGEtdG89IkNsaWVudCIgc3Ryb2tlLXdpZHRoPSIyIiBzdHJva2U9Im5vbmUiIHN0eWxlPSJzdHJva2UtZGFzaGFycmF5OiAzLCAzOyBmaWxsOiBub25lOyIgbWFya2VyLWVuZD0idXJsKCNhcnJvd2hlYWQpIiBtYXJrZXItc3RhcnQ9InVybCgjc2VxdWVuY2VudW1iZXIpIi8+PHRleHQgeD0iNTYxIiB5PSI1MDIiIGZvbnQtZmFtaWx5PSJzYW5zLXNlcmlmIiBmb250LXNpemU9IjEycHgiIHRleHQtYW5jaG9yPSJtaWRkbGUiIGNsYXNzPSJzZXF1ZW5jZU51bWJlciI+NjwvdGV4dD48dGV4dCB4PSIzMTYiIHk9IjUxMyIgdGV4dC1hbmNob3I9Im1pZGRsZSIgYWxpZ25tZW50LWJhc2VsaW5lPSJtaWRkbGUiIHN0eWxlPSJmb250LXNpemU6IDE2cHg7IGZvbnQtd2VpZ2h0OiA0MDA7IiBjbGFzcz0ibWVzc2FnZVRleHQiIGR5PSIxZW0iPmFib3J0KCk8L3RleHQ+PGxpbmUgeDE9Ijc2IiB5MT0iNTQ2IiB4Mj0iNTU1IiB5Mj0iNTQ2IiBjbGFzcz0ibWVzc2FnZUxpbmUxIiBkYXRhLWV0PSJtZXNzYWdlIiBkYXRhLWlkPSJpMTEiIGRhdGEtZnJvbT0iQ2xpZW50IiBkYXRhLXRvPSJQYXJzZXIiIHN0cm9rZS13aWR0aD0iMiIgc3Ryb2tlPSJub25lIiBzdHlsZT0ic3Ryb2tlLWRhc2hhcnJheTogMywgMzsgZmlsbDogbm9uZTsiIG1hcmtlci1lbmQ9InVybCgjYXJyb3doZWFkKSIgbWFya2VyLXN0YXJ0PSJ1cmwoI3NlcXVlbmNlbnVtYmVyKSIvPjx0ZXh0IHg9Ijc2IiB5PSI1NTAiIGZvbnQtZmFtaWx5PSJzYW5zLXNlcmlmIiBmb250LXNpemU9IjEycHgiIHRleHQtYW5jaG9yPSJtaWRkbGUiIGNsYXNzPSJzZXF1ZW5jZU51bWJlciI+NzwvdGV4dD48dGV4dCB4PSIzMjIiIHk9IjYwNiIgdGV4dC1hbmNob3I9Im1pZGRsZSIgYWxpZ25tZW50LWJhc2VsaW5lPSJtaWRkbGUiIHN0eWxlPSJmb250LXNpemU6IDE2cHg7IGZvbnQtd2VpZ2h0OiA0MDA7IiBjbGFzcz0ibWVzc2FnZVRleHQiIGR5PSIxZW0iPmFzdDwvdGV4dD48bGluZSB4MT0iNTYxIiB5MT0iNjM5IiB4Mj0iODIiIHkyPSI2MzkiIGNsYXNzPSJtZXNzYWdlTGluZTEiIGRhdGEtZXQ9Im1lc3NhZ2UiIGRhdGEtaWQ9ImkxMyIgZGF0YS1mcm9tPSJQYXJzZXIiIGRhdGEtdG89IkNsaWVudCIgc3Ryb2tlLXdpZHRoPSIyIiBzdHJva2U9Im5vbmUiIHN0eWxlPSJzdHJva2UtZGFzaGFycmF5OiAzLCAzOyBmaWxsOiBub25lOyIgbWFya2VyLWVuZD0idXJsKCNhcnJvd2hlYWQpIiBtYXJrZXItc3RhcnQ9InVybCgjc2VxdWVuY2VudW1iZXIpIi8+PHRleHQgeD0iNTYxIiB5PSI2NDMiIGZvbnQtZmFtaWx5PSJzYW5zLXNlcmlmIiBmb250LXNpemU9IjEycHgiIHRleHQtYW5jaG9yPSJtaWRkbGUiIGNsYXNzPSJzZXF1ZW5jZU51bWJlciI+ODwvdGV4dD48dGV4dCB4PSI0MTYiIHk9IjY2NCIgdGV4dC1hbmNob3I9Im1pZGRsZSIgYWxpZ25tZW50LWJhc2VsaW5lPSJtaWRkbGUiIHN0eWxlPSJmb250LXNpemU6IDE2cHg7IGZvbnQtd2VpZ2h0OiA0MDA7IiBjbGFzcz0ibWVzc2FnZVRleHQiIGR5PSIxZW0iPnNlcmlhbGl6ZShhc3QpICZhbXA7IHdyaXRlKCJvdXRwdXQuYXN0Iik8L3RleHQ+PGxpbmUgeDE9Ijc2IiB5MT0iNjk3IiB4Mj0iNzU1IiB5Mj0iNjk3IiBjbGFzcz0ibWVzc2FnZUxpbmUwIiBkYXRhLWV0PSJtZXNzYWdlIiBkYXRhLWlkPSJpMTUiIGRhdGEtZnJvbT0iQ2xpZW50IiBkYXRhLXRvPSJKU09OSU8iIHN0cm9rZS13aWR0aD0iMiIgc3Ryb2tlPSJub25lIiBtYXJrZXItZW5kPSJ1cmwoI2Fycm93aGVhZCkiIG1hcmtlci1zdGFydD0idXJsKCNzZXF1ZW5jZW51bWJlcikiIHN0eWxlPSJmaWxsOiBub25lOyIvPjx0ZXh0IHg9Ijc2IiB5PSI3MDEiIGZvbnQtZmFtaWx5PSJzYW5zLXNlcmlmIiBmb250LXNpemU9IjEycHgiIHRleHQtYW5jaG9yPSJtaWRkbGUiIGNsYXNzPSJzZXF1ZW5jZU51bWJlciI+OTwvdGV4dD48dGV4dCB4PSI0MjIiIHk9IjcxMiIgdGV4dC1hbmNob3I9Im1pZGRsZSIgYWxpZ25tZW50LWJhc2VsaW5lPSJtaWRkbGUiIHN0eWxlPSJmb250LXNpemU6IDE2cHg7IGZvbnQtd2VpZ2h0OiA0MDA7IiBjbGFzcz0ibWVzc2FnZVRleHQiIGR5PSIxZW0iPmFzdC5qc29uIChwYXRoKTwvdGV4dD48bGluZSB4MT0iNzYxIiB5MT0iNzQ1IiB4Mj0iODIiIHkyPSI3NDUiIGNsYXNzPSJtZXNzYWdlTGluZTEiIGRhdGEtZXQ9Im1lc3NhZ2UiIGRhdGEtaWQ9ImkxNiIgZGF0YS1mcm9tPSJKU09OSU8iIGRhdGEtdG89IkNsaWVudCIgc3Ryb2tlLXdpZHRoPSIyIiBzdHJva2U9Im5vbmUiIHN0eWxlPSJzdHJva2UtZGFzaGFycmF5OiAzLCAzOyBmaWxsOiBub25lOyIgbWFya2VyLWVuZD0idXJsKCNhcnJvd2hlYWQpIiBtYXJrZXItc3RhcnQ9InVybCgjc2VxdWVuY2VudW1iZXIpIi8+PHRleHQgeD0iNzYxIiB5PSI3NDkiIGZvbnQtZmFtaWx5PSJzYW5zLXNlcmlmIiBmb250LXNpemU9IjEycHgiIHRleHQtYW5jaG9yPSJtaWRkbGUiIGNsYXNzPSJzZXF1ZW5jZU51bWJlciI+MTA8L3RleHQ+PHRleHQgeD0iNDE2IiB5PSI3NjAiIHRleHQtYW5jaG9yPSJtaWRkbGUiIGFsaWdubWVudC1iYXNlbGluZT0ibWlkZGxlIiBzdHlsZT0iZm9udC1zaXplOiAxNnB4OyBmb250LXdlaWdodDogNDAwOyIgY2xhc3M9Im1lc3NhZ2VUZXh0IiBkeT0iMWVtIj5yZWFkKCJvdXRwdXQuYXN0Iik8L3RleHQ+PGxpbmUgeDE9Ijc2IiB5MT0iNzkzIiB4Mj0iNzU1IiB5Mj0iNzkzIiBjbGFzcz0ibWVzc2FnZUxpbmUwIiBkYXRhLWV0PSJtZXNzYWdlIiBkYXRhLWlkPSJpMTciIGRhdGEtZnJvbT0iQ2xpZW50IiBkYXRhLXRvPSJKU09OSU8iIHN0cm9rZS13aWR0aD0iMiIgc3Ryb2tlPSJub25lIiBtYXJrZXItZW5kPSJ1cmwoI2Fycm93aGVhZCkiIG1hcmtlci1zdGFydD0idXJsKCNzZXF1ZW5jZW51bWJlcikiIHN0eWxlPSJmaWxsOiBub25lOyIvPjx0ZXh0IHg9Ijc2IiB5PSI3OTciIGZvbnQtZmFtaWx5PSJzYW5zLXNlcmlmIiBmb250LXNpemU9IjEycHgiIHRleHQtYW5jaG9yPSJtaWRkbGUiIGNsYXNzPSJzZXF1ZW5jZU51bWJlciI+MTE8L3RleHQ+PHRleHQgeD0iNDIyIiB5PSI4MDgiIHRleHQtYW5jaG9yPSJtaWRkbGUiIGFsaWdubWVudC1iYXNlbGluZT0ibWlkZGxlIiBzdHlsZT0iZm9udC1zaXplOiAxNnB4OyBmb250LXdlaWdodDogNDAwOyIgY2xhc3M9Im1lc3NhZ2VUZXh0IiBkeT0iMWVtIj5hc3QuanNvbjwvdGV4dD48bGluZSB4MT0iNzYxIiB5MT0iODQxIiB4Mj0iODIiIHkyPSI4NDEiIGNsYXNzPSJtZXNzYWdlTGluZTEiIGRhdGEtZXQ9Im1lc3NhZ2UiIGRhdGEtaWQ9ImkxOCIgZGF0YS1mcm9tPSJKU09OSU8iIGRhdGEtdG89IkNsaWVudCIgc3Ryb2tlLXdpZHRoPSIyIiBzdHJva2U9Im5vbmUiIHN0eWxlPSJzdHJva2UtZGFzaGFycmF5OiAzLCAzOyBmaWxsOiBub25lOyIgbWFya2VyLWVuZD0idXJsKCNhcnJvd2hlYWQpIiBtYXJrZXItc3RhcnQ9InVybCgjc2VxdWVuY2VudW1iZXIpIi8+PHRleHQgeD0iNzYxIiB5PSI4NDUiIGZvbnQtZmFtaWx5PSJzYW5zLXNlcmlmIiBmb250LXNpemU9IjEycHgiIHRleHQtYW5jaG9yPSJtaWRkbGUiIGNsYXNzPSJzZXF1ZW5jZU51bWJlciI+MTI8L3RleHQ+PHRleHQgeD0iNTI0IiB5PSI4NTYiIHRleHQtYW5jaG9yPSJtaWRkbGUiIGFsaWdubWVudC1iYXNlbGluZT0ibWlkZGxlIiBzdHlsZT0iZm9udC1zaXplOiAxNnB4OyBmb250LXdlaWdodDogNDAwOyIgY2xhc3M9Im1lc3NhZ2VUZXh0IiBkeT0iMWVtIj5kZXNlcmlhbGl6ZShhc3QuanNvbilcbmFuYWx5emUoKTwvdGV4dD48bGluZSB4MT0iNzYiIHkxPSI4ODkiIHgyPSI5NzEiIHkyPSI4ODkiIGNsYXNzPSJtZXNzYWdlTGluZTAiIGRhdGEtZXQ9Im1lc3NhZ2UiIGRhdGEtaWQ9ImkxOSIgZGF0YS1mcm9tPSJDbGllbnQiIGRhdGEtdG89IlNlbUEiIHN0cm9rZS13aWR0aD0iMiIgc3Ryb2tlPSJub25lIiBtYXJrZXItZW5kPSJ1cmwoI2Fycm93aGVhZCkiIG1hcmtlci1zdGFydD0idXJsKCNzZXF1ZW5jZW51bWJlcikiIHN0eWxlPSJmaWxsOiBub25lOyIvPjx0ZXh0IHg9Ijc2IiB5PSI4OTMiIGZvbnQtZmFtaWx5PSJzYW5zLXNlcmlmIiBmb250LXNpemU9IjEycHgiIHRleHQtYW5jaG9yPSJtaWRkbGUiIGNsYXNzPSJzZXF1ZW5jZU51bWJlciI+MTM8L3RleHQ+PHRleHQgeD0iNTMwIiB5PSI5NDkiIHRleHQtYW5jaG9yPSJtaWRkbGUiIGFsaWdubWVudC1iYXNlbGluZT0ibWlkZGxlIiBzdHlsZT0iZm9udC1zaXplOiAxNnB4OyBmb250LXdlaWdodDogNDAwOyIgY2xhc3M9Im1lc3NhZ2VUZXh0IiBkeT0iMWVtIj5TZW1hbnRpY0Vycm9yPC90ZXh0PjxsaW5lIHgxPSI5NzciIHkxPSI5ODIiIHgyPSI4MiIgeTI9Ijk4MiIgY2xhc3M9Im1lc3NhZ2VMaW5lMSIgZGF0YS1ldD0ibWVzc2FnZSIgZGF0YS1pZD0iaTIxIiBkYXRhLWZyb209IlNlbUEiIGRhdGEtdG89IkNsaWVudCIgc3Ryb2tlLXdpZHRoPSIyIiBzdHJva2U9Im5vbmUiIHN0eWxlPSJzdHJva2UtZGFzaGFycmF5OiAzLCAzOyBmaWxsOiBub25lOyIgbWFya2VyLWVuZD0idXJsKCNhcnJvd2hlYWQpIiBtYXJrZXItc3RhcnQ9InVybCgjc2VxdWVuY2VudW1iZXIpIi8+PHRleHQgeD0iOTc3IiB5PSI5ODYiIGZvbnQtZmFtaWx5PSJzYW5zLXNlcmlmIiBmb250LXNpemU9IjEycHgiIHRleHQtYW5jaG9yPSJtaWRkbGUiIGNsYXNzPSJzZXF1ZW5jZU51bWJlciI+MTQ8L3RleHQ+PHRleHQgeD0iNTI0IiB5PSI5OTciIHRleHQtYW5jaG9yPSJtaWRkbGUiIGFsaWdubWVudC1iYXNlbGluZT0ibWlkZGxlIiBzdHlsZT0iZm9udC1zaXplOiAxNnB4OyBmb250LXdlaWdodDogNDAwOyIgY2xhc3M9Im1lc3NhZ2VUZXh0IiBkeT0iMWVtIj5hYm9ydCgpPC90ZXh0PjxsaW5lIHgxPSI3NiIgeTE9IjEwMzAiIHgyPSI5NzEiIHkyPSIxMDMwIiBjbGFzcz0ibWVzc2FnZUxpbmUxIiBkYXRhLWV0PSJtZXNzYWdlIiBkYXRhLWlkPSJpMjIiIGRhdGEtZnJvbT0iQ2xpZW50IiBkYXRhLXRvPSJTZW1BIiBzdHJva2Utd2lkdGg9IjIiIHN0cm9rZT0ibm9uZSIgc3R5bGU9InN0cm9rZS1kYXNoYXJyYXk6IDMsIDM7IGZpbGw6IG5vbmU7IiBtYXJrZXItZW5kPSJ1cmwoI2Fycm93aGVhZCkiIG1hcmtlci1zdGFydD0idXJsKCNzZXF1ZW5jZW51bWJlcikiLz48dGV4dCB4PSI3NiIgeT0iMTAzNCIgZm9udC1mYW1pbHk9InNhbnMtc2VyaWYiIGZvbnQtc2l6ZT0iMTJweCIgdGV4dC1hbmNob3I9Im1pZGRsZSIgY2xhc3M9InNlcXVlbmNlTnVtYmVyIj4xNTwvdGV4dD48dGV4dCB4PSI1MzAiIHk9IjEwOTAiIHRleHQtYW5jaG9yPSJtaWRkbGUiIGFsaWdubWVudC1iYXNlbGluZT0ibWlkZGxlIiBzdHlsZT0iZm9udC1zaXplOiAxNnB4OyBmb250LXdlaWdodDogNDAwOyIgY2xhc3M9Im1lc3NhZ2VUZXh0IiBkeT0iMWVtIj5pcjwvdGV4dD48bGluZSB4MT0iOTc3IiB5MT0iMTEyMyIgeDI9IjgyIiB5Mj0iMTEyMyIgY2xhc3M9Im1lc3NhZ2VMaW5lMSIgZGF0YS1ldD0ibWVzc2FnZSIgZGF0YS1pZD0iaTI0IiBkYXRhLWZyb209IlNlbUEiIGRhdGEtdG89IkNsaWVudCIgc3Ryb2tlLXdpZHRoPSIyIiBzdHJva2U9Im5vbmUiIHN0eWxlPSJzdHJva2UtZGFzaGFycmF5OiAzLCAzOyBmaWxsOiBub25lOyIgbWFya2VyLWVuZD0idXJsKCNhcnJvd2hlYWQpIiBtYXJrZXItc3RhcnQ9InVybCgjc2VxdWVuY2VudW1iZXIpIi8+PHRleHQgeD0iOTc3IiB5PSIxMTI3IiBmb250LWZhbWlseT0ic2Fucy1zZXJpZiIgZm9udC1zaXplPSIxMnB4IiB0ZXh0LWFuY2hvcj0ibWlkZGxlIiBjbGFzcz0ic2VxdWVuY2VOdW1iZXIiPjE2PC90ZXh0Pjx0ZXh0IHg9IjYzMyIgeT0iMTE0OCIgdGV4dC1hbmNob3I9Im1pZGRsZSIgYWxpZ25tZW50LWJhc2VsaW5lPSJtaWRkbGUiIHN0eWxlPSJmb250LXNpemU6IDE2cHg7IGZvbnQtd2VpZ2h0OiA0MDA7IiBjbGFzcz0ibWVzc2FnZVRleHQiIGR5PSIxZW0iPmdlbmVyYXRlKGlyKTwvdGV4dD48bGluZSB4MT0iNzYiIHkxPSIxMTgxIiB4Mj0iMTE5MC41IiB5Mj0iMTE4MSIgY2xhc3M9Im1lc3NhZ2VMaW5lMCIgZGF0YS1ldD0ibWVzc2FnZSIgZGF0YS1pZD0iaTI2IiBkYXRhLWZyb209IkNsaWVudCIgZGF0YS10bz0iQ29kZUdlbiIgc3Ryb2tlLXdpZHRoPSIyIiBzdHJva2U9Im5vbmUiIG1hcmtlci1lbmQ9InVybCgjYXJyb3doZWFkKSIgbWFya2VyLXN0YXJ0PSJ1cmwoI3NlcXVlbmNlbnVtYmVyKSIgc3R5bGU9ImZpbGw6IG5vbmU7Ii8+PHRleHQgeD0iNzYiIHk9IjExODUiIGZvbnQtZmFtaWx5PSJzYW5zLXNlcmlmIiBmb250LXNpemU9IjEycHgiIHRleHQtYW5jaG9yPSJtaWRkbGUiIGNsYXNzPSJzZXF1ZW5jZU51bWJlciI+MTc8L3RleHQ+PHRleHQgeD0iNjM5IiB5PSIxMjQxIiB0ZXh0LWFuY2hvcj0ibWlkZGxlIiBhbGlnbm1lbnQtYmFzZWxpbmU9Im1pZGRsZSIgc3R5bGU9ImZvbnQtc2l6ZTogMTZweDsgZm9udC13ZWlnaHQ6IDQwMDsiIGNsYXNzPSJtZXNzYWdlVGV4dCIgZHk9IjFlbSI+Q29kZWdlbkVycm9yPC90ZXh0PjxsaW5lIHgxPSIxMTk2LjUiIHkxPSIxMjc0IiB4Mj0iODIiIHkyPSIxMjc0IiBjbGFzcz0ibWVzc2FnZUxpbmUxIiBkYXRhLWV0PSJtZXNzYWdlIiBkYXRhLWlkPSJpMjgiIGRhdGEtZnJvbT0iQ29kZUdlbiIgZGF0YS10bz0iQ2xpZW50IiBzdHJva2Utd2lkdGg9IjIiIHN0cm9rZT0ibm9uZSIgc3R5bGU9InN0cm9rZS1kYXNoYXJyYXk6IDMsIDM7IGZpbGw6IG5vbmU7IiBtYXJrZXItZW5kPSJ1cmwoI2Fycm93aGVhZCkiIG1hcmtlci1zdGFydD0idXJsKCNzZXF1ZW5jZW51bWJlcikiLz48dGV4dCB4PSIxMTk2LjUiIHk9IjEyNzgiIGZvbnQtZmFtaWx5PSJzYW5zLXNlcmlmIiBmb250LXNpemU9IjEycHgiIHRleHQtYW5jaG9yPSJtaWRkbGUiIGNsYXNzPSJzZXF1ZW5jZU51bWJlciI+MTg8L3RleHQ+PHRleHQgeD0iNjM5IiB5PSIxMzM0IiB0ZXh0LWFuY2hvcj0ibWlkZGxlIiBhbGlnbm1lbnQtYmFzZWxpbmU9Im1pZGRsZSIgc3R5bGU9ImZvbnQtc2l6ZTogMTZweDsgZm9udC13ZWlnaHQ6IDQwMDsiIGNsYXNzPSJtZXNzYWdlVGV4dCIgZHk9IjFlbSI+Y3BwU291cmNlPC90ZXh0PjxsaW5lIHgxPSIxMTk2LjUiIHkxPSIxMzY3IiB4Mj0iODIiIHkyPSIxMzY3IiBjbGFzcz0ibWVzc2FnZUxpbmUxIiBkYXRhLWV0PSJtZXNzYWdlIiBkYXRhLWlkPSJpMzAiIGRhdGEtZnJvbT0iQ29kZUdlbiIgZGF0YS10bz0iQ2xpZW50IiBzdHJva2Utd2lkdGg9IjIiIHN0cm9rZT0ibm9uZSIgc3R5bGU9InN0cm9rZS1kYXNoYXJyYXk6IDMsIDM7IGZpbGw6IG5vbmU7IiBtYXJrZXItZW5kPSJ1cmwoI2Fycm93aGVhZCkiIG1hcmtlci1zdGFydD0idXJsKCNzZXF1ZW5jZW51bWJlcikiLz48dGV4dCB4PSIxMTk2LjUiIHk9IjEzNzEiIGZvbnQtZmFtaWx5PSJzYW5zLXNlcmlmIiBmb250LXNpemU9IjEycHgiIHRleHQtYW5jaG9yPSJtaWRkbGUiIGNsYXNzPSJzZXF1ZW5jZU51bWJlciI+MTk8L3RleHQ+PHRleHQgeD0iNjM5IiB5PSIxMzgyIiB0ZXh0LWFuY2hvcj0ibWlkZGxlIiBhbGlnbm1lbnQtYmFzZWxpbmU9Im1pZGRsZSIgc3R5bGU9ImZvbnQtc2l6ZTogMTZweDsgZm9udC13ZWlnaHQ6IDQwMDsiIGNsYXNzPSJtZXNzYWdlVGV4dCIgZHk9IjFlbSI+amF2YVNvdXJjZTwvdGV4dD48bGluZSB4MT0iMTE5Ni41IiB5MT0iMTQxNSIgeDI9IjgyIiB5Mj0iMTQxNSIgY2xhc3M9Im1lc3NhZ2VMaW5lMSIgZGF0YS1ldD0ibWVzc2FnZSIgZGF0YS1pZD0iaTMxIiBkYXRhLWZyb209IkNvZGVHZW4iIGRhdGEtdG89IkNsaWVudCIgc3Ryb2tlLXdpZHRoPSIyIiBzdHJva2U9Im5vbmUiIHN0eWxlPSJzdHJva2UtZGFzaGFycmF5OiAzLCAzOyBmaWxsOiBub25lOyIgbWFya2VyLWVuZD0idXJsKCNhcnJvd2hlYWQpIiBtYXJrZXItc3RhcnQ9InVybCgjc2VxdWVuY2VudW1iZXIpIi8+PHRleHQgeD0iMTE5Ni41IiB5PSIxNDE5IiBmb250LWZhbWlseT0ic2Fucy1zZXJpZiIgZm9udC1zaXplPSIxMnB4IiB0ZXh0LWFuY2hvcj0ibWlkZGxlIiBjbGFzcz0ic2VxdWVuY2VOdW1iZXIiPjIwPC90ZXh0Pjx0ZXh0IHg9IjYzOSIgeT0iMTQzMCIgdGV4dC1hbmNob3I9Im1pZGRsZSIgYWxpZ25tZW50LWJhc2VsaW5lPSJtaWRkbGUiIHN0eWxlPSJmb250LXNpemU6IDE2cHg7IGZvbnQtd2VpZ2h0OiA0MDA7IiBjbGFzcz0ibWVzc2FnZVRleHQiIGR5PSIxZW0iPnB5dGhvblNvdXJjZTwvdGV4dD48bGluZSB4MT0iMTE5Ni41IiB5MT0iMTQ2MyIgeDI9IjgyIiB5Mj0iMTQ2MyIgY2xhc3M9Im1lc3NhZ2VMaW5lMSIgZGF0YS1ldD0ibWVzc2FnZSIgZGF0YS1pZD0iaTMyIiBkYXRhLWZyb209IkNvZGVHZW4iIGRhdGEtdG89IkNsaWVudCIgc3Ryb2tlLXdpZHRoPSIyIiBzdHJva2U9Im5vbmUiIHN0eWxlPSJzdHJva2UtZGFzaGFycmF5OiAzLCAzOyBmaWxsOiBub25lOyIgbWFya2VyLWVuZD0idXJsKCNhcnJvd2hlYWQpIiBtYXJrZXItc3RhcnQ9InVybCgjc2VxdWVuY2VudW1iZXIpIi8+PHRleHQgeD0iMTE5Ni41IiB5PSIxNDY3IiBmb250LWZhbWlseT0ic2Fucy1zZXJpZiIgZm9udC1zaXplPSIxMnB4IiB0ZXh0LWFuY2hvcj0ibWlkZGxlIiBjbGFzcz0ic2VxdWVuY2VOdW1iZXIiPjIxPC90ZXh0Pjx0ZXh0IHg9IjYzOSIgeT0iMTQ3OCIgdGV4dC1hbmNob3I9Im1pZGRsZSIgYWxpZ25tZW50LWJhc2VsaW5lPSJtaWRkbGUiIHN0eWxlPSJmb250LXNpemU6IDE2cHg7IGZvbnQtd2VpZ2h0OiA0MDA7IiBjbGFzcz0ibWVzc2FnZVRleHQiIGR5PSIxZW0iPmpzU291cmNlPC90ZXh0PjxsaW5lIHgxPSIxMTk2LjUiIHkxPSIxNTExIiB4Mj0iODIiIHkyPSIxNTExIiBjbGFzcz0ibWVzc2FnZUxpbmUxIiBkYXRhLWV0PSJtZXNzYWdlIiBkYXRhLWlkPSJpMzMiIGRhdGEtZnJvbT0iQ29kZUdlbiIgZGF0YS10bz0iQ2xpZW50IiBzdHJva2Utd2lkdGg9IjIiIHN0cm9rZT0ibm9uZSIgc3R5bGU9InN0cm9rZS1kYXNoYXJyYXk6IDMsIDM7IGZpbGw6IG5vbmU7IiBtYXJrZXItZW5kPSJ1cmwoI2Fycm93aGVhZCkiIG1hcmtlci1zdGFydD0idXJsKCNzZXF1ZW5jZW51bWJlcikiLz48dGV4dCB4PSIxMTk2LjUiIHk9IjE1MTUiIGZvbnQtZmFtaWx5PSJzYW5zLXNlcmlmIiBmb250LXNpemU9IjEycHgiIHRleHQtYW5jaG9yPSJtaWRkbGUiIGNsYXNzPSJzZXF1ZW5jZU51bWJlciI+MjI8L3RleHQ+PC9zdmc+;" vertex="1" parent="1">
          <mxGeometry x="850" y="10" width="954" height="1200" as="geometry" />
        </mxCell>
      </root>
    </mxGraphModel>
  </diagram>
</mxfile>
